<?xml version="1.0" standalone="no"?>
 <!DOCTYPE svg PUBLIC "-//W3C//DTD SVG 1.1//EN" 
 "http://www.w3.org/Graphics/SVG/1.1/DTD/svg11.dtd"> 
<svg
  xmlns:svg="http://www.w3.org/2000/svg"
  xmlns="http://www.w3.org/2000/svg"
  xmlns:xlink="http://www.w3.org/1999/xlink"
  version="1.1"
  width="297.0022mm" height="210.0072mm" viewBox="0.0000 0.0000 297.0022 210.0072">
<title>SVG Image created as template_project_kicad-F_Fab.svg date 2023/11/26 00:58:14 </title>
  <desc>Image generated by PCBNEW </desc>
<g style="fill:#000000; fill-opacity:1.0000;stroke:#000000; stroke-opacity:1.0000;
stroke-linecap:round; stroke-linejoin:round;"
 transform="translate(0 0) scale(1 1)">
</g>
<g style="fill:#000000; fill-opacity:0.0; 
stroke:#000000; stroke-width:0.0000; stroke-opacity:1; 
stroke-linecap:round; stroke-linejoin:round;">
</g>
<g style="fill:#000000; fill-opacity:0.0; 
stroke:#000000; stroke-width:0.1500; stroke-opacity:1; 
stroke-linecap:round; stroke-linejoin:round;">
<text x="104.4400" y="97.0200"
textLength="4.5357" font-size="1.3333" lengthAdjust="spacingAndGlyphs"
text-anchor="middle" opacity="0">REF**</text>
<g class="stroked-text"><desc>REF**</desc>
<path d="M103.1067 96.9748
L102.7733 96.4986
" />
<path d="M102.5352 96.9748
L102.5352 95.9748
" />
<path d="M102.5352 95.9748
L102.9162 95.9748
" />
<path d="M102.9162 95.9748
L103.0114 96.0224
" />
<path d="M103.0114 96.0224
L103.0590 96.0701
" />
<path d="M103.0590 96.0701
L103.1067 96.1653
" />
<path d="M103.1067 96.1653
L103.1067 96.3082
" />
<path d="M103.1067 96.3082
L103.0590 96.4034
" />
<path d="M103.0590 96.4034
L103.0114 96.4510
" />
<path d="M103.0114 96.4510
L102.9162 96.4986
" />
<path d="M102.9162 96.4986
L102.5352 96.4986
" />
<path d="M103.5352 96.4510
L103.8686 96.4510
" />
<path d="M104.0114 96.9748
L103.5352 96.9748
" />
<path d="M103.5352 96.9748
L103.5352 95.9748
" />
<path d="M103.5352 95.9748
L104.0114 95.9748
" />
<path d="M104.7733 96.4510
L104.4400 96.4510
" />
<path d="M104.4400 96.9748
L104.4400 95.9748
" />
<path d="M104.4400 95.9748
L104.9162 95.9748
" />
<path d="M105.4400 95.9748
L105.4400 96.2129
" />
<path d="M105.2019 96.1177
L105.4400 96.2129
" />
<path d="M105.4400 96.2129
L105.6781 96.1177
" />
<path d="M105.2971 96.4034
L105.4400 96.2129
" />
<path d="M105.4400 96.2129
L105.5829 96.4034
" />
<path d="M106.2019 95.9748
L106.2019 96.2129
" />
<path d="M105.9638 96.1177
L106.2019 96.2129
" />
<path d="M106.2019 96.2129
L106.4400 96.1177
" />
<path d="M106.0590 96.4034
L106.2019 96.2129
" />
<path d="M106.2019 96.2129
L106.3448 96.4034
" />
</g><text x="127.6990" y="76.3550"
textLength="13.6786" font-size="1.3333" lengthAdjust="spacingAndGlyphs"
text-anchor="middle" opacity="0">Polulu-S13V30F5</text>
<g class="stroked-text"><desc>Polulu-S13V30F5</desc>
<path d="M121.2228 76.3098
L121.2228 75.3098
" />
<path d="M121.2228 75.3098
L121.6038 75.3098
" />
<path d="M121.6038 75.3098
L121.6990 75.3574
" />
<path d="M121.6990 75.3574
L121.7466 75.4051
" />
<path d="M121.7466 75.4051
L121.7942 75.5003
" />
<path d="M121.7942 75.5003
L121.7942 75.6432
" />
<path d="M121.7942 75.6432
L121.7466 75.7384
" />
<path d="M121.7466 75.7384
L121.6990 75.7860
" />
<path d="M121.6990 75.7860
L121.6038 75.8336
" />
<path d="M121.6038 75.8336
L121.2228 75.8336
" />
<path d="M122.3657 76.3098
L122.2704 76.2622
" />
<path d="M122.2704 76.2622
L122.2228 76.2146
" />
<path d="M122.2228 76.2146
L122.1752 76.1193
" />
<path d="M122.1752 76.1193
L122.1752 75.8336
" />
<path d="M122.1752 75.8336
L122.2228 75.7384
" />
<path d="M122.2228 75.7384
L122.2704 75.6908
" />
<path d="M122.2704 75.6908
L122.3657 75.6432
" />
<path d="M122.3657 75.6432
L122.5085 75.6432
" />
<path d="M122.5085 75.6432
L122.6038 75.6908
" />
<path d="M122.6038 75.6908
L122.6514 75.7384
" />
<path d="M122.6514 75.7384
L122.6990 75.8336
" />
<path d="M122.6990 75.8336
L122.6990 76.1193
" />
<path d="M122.6990 76.1193
L122.6514 76.2146
" />
<path d="M122.6514 76.2146
L122.6038 76.2622
" />
<path d="M122.6038 76.2622
L122.5085 76.3098
" />
<path d="M122.5085 76.3098
L122.3657 76.3098
" />
<path d="M123.2704 76.3098
L123.1752 76.2622
" />
<path d="M123.1752 76.2622
L123.1276 76.1670
" />
<path d="M123.1276 76.1670
L123.1276 75.3098
" />
<path d="M124.0800 75.6432
L124.0800 76.3098
" />
<path d="M123.6514 75.6432
L123.6514 76.1670
" />
<path d="M123.6514 76.1670
L123.6990 76.2622
" />
<path d="M123.6990 76.2622
L123.7942 76.3098
" />
<path d="M123.7942 76.3098
L123.9371 76.3098
" />
<path d="M123.9371 76.3098
L124.0323 76.2622
" />
<path d="M124.0323 76.2622
L124.0800 76.2146
" />
<path d="M124.6990 76.3098
L124.6038 76.2622
" />
<path d="M124.6038 76.2622
L124.5561 76.1670
" />
<path d="M124.5561 76.1670
L124.5561 75.3098
" />
<path d="M125.5085 75.6432
L125.5085 76.3098
" />
<path d="M125.0800 75.6432
L125.0800 76.1670
" />
<path d="M125.0800 76.1670
L125.1276 76.2622
" />
<path d="M125.1276 76.2622
L125.2228 76.3098
" />
<path d="M125.2228 76.3098
L125.3657 76.3098
" />
<path d="M125.3657 76.3098
L125.4609 76.2622
" />
<path d="M125.4609 76.2622
L125.5085 76.2146
" />
<path d="M125.9847 75.9289
L126.7466 75.9289
" />
<path d="M127.1752 76.2622
L127.3180 76.3098
" />
<path d="M127.3180 76.3098
L127.5561 76.3098
" />
<path d="M127.5561 76.3098
L127.6514 76.2622
" />
<path d="M127.6514 76.2622
L127.6990 76.2146
" />
<path d="M127.6990 76.2146
L127.7466 76.1193
" />
<path d="M127.7466 76.1193
L127.7466 76.0241
" />
<path d="M127.7466 76.0241
L127.6990 75.9289
" />
<path d="M127.6990 75.9289
L127.6514 75.8812
" />
<path d="M127.6514 75.8812
L127.5561 75.8336
" />
<path d="M127.5561 75.8336
L127.3657 75.7860
" />
<path d="M127.3657 75.7860
L127.2704 75.7384
" />
<path d="M127.2704 75.7384
L127.2228 75.6908
" />
<path d="M127.2228 75.6908
L127.1752 75.5955
" />
<path d="M127.1752 75.5955
L127.1752 75.5003
" />
<path d="M127.1752 75.5003
L127.2228 75.4051
" />
<path d="M127.2228 75.4051
L127.2704 75.3574
" />
<path d="M127.2704 75.3574
L127.3657 75.3098
" />
<path d="M127.3657 75.3098
L127.6038 75.3098
" />
<path d="M127.6038 75.3098
L127.7466 75.3574
" />
<path d="M128.6990 76.3098
L128.1276 76.3098
" />
<path d="M128.4133 76.3098
L128.4133 75.3098
" />
<path d="M128.4133 75.3098
L128.3180 75.4527
" />
<path d="M128.3180 75.4527
L128.2228 75.5479
" />
<path d="M128.2228 75.5479
L128.1276 75.5955
" />
<path d="M129.0323 75.3098
L129.6514 75.3098
" />
<path d="M129.6514 75.3098
L129.3180 75.6908
" />
<path d="M129.3180 75.6908
L129.4609 75.6908
" />
<path d="M129.4609 75.6908
L129.5561 75.7384
" />
<path d="M129.5561 75.7384
L129.6038 75.7860
" />
<path d="M129.6038 75.7860
L129.6514 75.8812
" />
<path d="M129.6514 75.8812
L129.6514 76.1193
" />
<path d="M129.6514 76.1193
L129.6038 76.2146
" />
<path d="M129.6038 76.2146
L129.5561 76.2622
" />
<path d="M129.5561 76.2622
L129.4609 76.3098
" />
<path d="M129.4609 76.3098
L129.1752 76.3098
" />
<path d="M129.1752 76.3098
L129.0800 76.2622
" />
<path d="M129.0800 76.2622
L129.0323 76.2146
" />
<path d="M129.9371 75.3098
L130.2704 76.3098
" />
<path d="M130.2704 76.3098
L130.6038 75.3098
" />
<path d="M130.8419 75.3098
L131.4609 75.3098
" />
<path d="M131.4609 75.3098
L131.1276 75.6908
" />
<path d="M131.1276 75.6908
L131.2704 75.6908
" />
<path d="M131.2704 75.6908
L131.3657 75.7384
" />
<path d="M131.3657 75.7384
L131.4133 75.7860
" />
<path d="M131.4133 75.7860
L131.4609 75.8812
" />
<path d="M131.4609 75.8812
L131.4609 76.1193
" />
<path d="M131.4609 76.1193
L131.4133 76.2146
" />
<path d="M131.4133 76.2146
L131.3657 76.2622
" />
<path d="M131.3657 76.2622
L131.2704 76.3098
" />
<path d="M131.2704 76.3098
L130.9847 76.3098
" />
<path d="M130.9847 76.3098
L130.8895 76.2622
" />
<path d="M130.8895 76.2622
L130.8419 76.2146
" />
<path d="M132.0800 75.3098
L132.1752 75.3098
" />
<path d="M132.1752 75.3098
L132.2704 75.3574
" />
<path d="M132.2704 75.3574
L132.3180 75.4051
" />
<path d="M132.3180 75.4051
L132.3657 75.5003
" />
<path d="M132.3657 75.5003
L132.4133 75.6908
" />
<path d="M132.4133 75.6908
L132.4133 75.9289
" />
<path d="M132.4133 75.9289
L132.3657 76.1193
" />
<path d="M132.3657 76.1193
L132.3180 76.2146
" />
<path d="M132.3180 76.2146
L132.2704 76.2622
" />
<path d="M132.2704 76.2622
L132.1752 76.3098
" />
<path d="M132.1752 76.3098
L132.0800 76.3098
" />
<path d="M132.0800 76.3098
L131.9847 76.2622
" />
<path d="M131.9847 76.2622
L131.9371 76.2146
" />
<path d="M131.9371 76.2146
L131.8895 76.1193
" />
<path d="M131.8895 76.1193
L131.8419 75.9289
" />
<path d="M131.8419 75.9289
L131.8419 75.6908
" />
<path d="M131.8419 75.6908
L131.8895 75.5003
" />
<path d="M131.8895 75.5003
L131.9371 75.4051
" />
<path d="M131.9371 75.4051
L131.9847 75.3574
" />
<path d="M131.9847 75.3574
L132.0800 75.3098
" />
<path d="M133.1752 75.7860
L132.8419 75.7860
" />
<path d="M132.8419 76.3098
L132.8419 75.3098
" />
<path d="M132.8419 75.3098
L133.3180 75.3098
" />
<path d="M134.1752 75.3098
L133.6990 75.3098
" />
<path d="M133.6990 75.3098
L133.6514 75.7860
" />
<path d="M133.6514 75.7860
L133.6990 75.7384
" />
<path d="M133.6990 75.7384
L133.7942 75.6908
" />
<path d="M133.7942 75.6908
L134.0323 75.6908
" />
<path d="M134.0323 75.6908
L134.1276 75.7384
" />
<path d="M134.1276 75.7384
L134.1752 75.7860
" />
<path d="M134.1752 75.7860
L134.2228 75.8812
" />
<path d="M134.2228 75.8812
L134.2228 76.1193
" />
<path d="M134.2228 76.1193
L134.1752 76.2146
" />
<path d="M134.1752 76.2146
L134.1276 76.2622
" />
<path d="M134.1276 76.2622
L134.0323 76.3098
" />
<path d="M134.0323 76.3098
L133.7942 76.3098
" />
<path d="M133.7942 76.3098
L133.6990 76.2622
" />
<path d="M133.6990 76.2622
L133.6514 76.2146
" />
</g><text x="128.0990" y="72.1550"
textLength="3.1548" font-size="1.3333" lengthAdjust="spacingAndGlyphs"
text-anchor="middle" opacity="0">PS1</text>
<g class="stroked-text"><desc>PS1</desc>
<path d="M126.8847 72.1098
L126.8847 71.1098
" />
<path d="M126.8847 71.1098
L127.2657 71.1098
" />
<path d="M127.2657 71.1098
L127.3609 71.1574
" />
<path d="M127.3609 71.1574
L127.4085 71.2051
" />
<path d="M127.4085 71.2051
L127.4561 71.3003
" />
<path d="M127.4561 71.3003
L127.4561 71.4432
" />
<path d="M127.4561 71.4432
L127.4085 71.5384
" />
<path d="M127.4085 71.5384
L127.3609 71.5860
" />
<path d="M127.3609 71.5860
L127.2657 71.6336
" />
<path d="M127.2657 71.6336
L126.8847 71.6336
" />
<path d="M127.8371 72.0622
L127.9800 72.1098
" />
<path d="M127.9800 72.1098
L128.2180 72.1098
" />
<path d="M128.2180 72.1098
L128.3133 72.0622
" />
<path d="M128.3133 72.0622
L128.3609 72.0146
" />
<path d="M128.3609 72.0146
L128.4085 71.9193
" />
<path d="M128.4085 71.9193
L128.4085 71.8241
" />
<path d="M128.4085 71.8241
L128.3609 71.7289
" />
<path d="M128.3609 71.7289
L128.3133 71.6812
" />
<path d="M128.3133 71.6812
L128.2180 71.6336
" />
<path d="M128.2180 71.6336
L128.0276 71.5860
" />
<path d="M128.0276 71.5860
L127.9323 71.5384
" />
<path d="M127.9323 71.5384
L127.8847 71.4908
" />
<path d="M127.8847 71.4908
L127.8371 71.3955
" />
<path d="M127.8371 71.3955
L127.8371 71.3003
" />
<path d="M127.8371 71.3003
L127.8847 71.2051
" />
<path d="M127.8847 71.2051
L127.9323 71.1574
" />
<path d="M127.9323 71.1574
L128.0276 71.1098
" />
<path d="M128.0276 71.1098
L128.2657 71.1098
" />
<path d="M128.2657 71.1098
L128.4085 71.1574
" />
<path d="M129.3609 72.1098
L128.7895 72.1098
" />
<path d="M129.0752 72.1098
L129.0752 71.1098
" />
<path d="M129.0752 71.1098
L128.9800 71.2527
" />
<path d="M128.9800 71.2527
L128.8847 71.3479
" />
<path d="M128.8847 71.3479
L128.7895 71.3955
" />
</g><text x="147.6200" y="97.0200"
textLength="4.5357" font-size="1.3333" lengthAdjust="spacingAndGlyphs"
text-anchor="middle" opacity="0">REF**</text>
<g class="stroked-text"><desc>REF**</desc>
<path d="M146.2867 96.9748
L145.9533 96.4986
" />
<path d="M145.7152 96.9748
L145.7152 95.9748
" />
<path d="M145.7152 95.9748
L146.0962 95.9748
" />
<path d="M146.0962 95.9748
L146.1914 96.0224
" />
<path d="M146.1914 96.0224
L146.2390 96.0701
" />
<path d="M146.2390 96.0701
L146.2867 96.1653
" />
<path d="M146.2867 96.1653
L146.2867 96.3082
" />
<path d="M146.2867 96.3082
L146.2390 96.4034
" />
<path d="M146.2390 96.4034
L146.1914 96.4510
" />
<path d="M146.1914 96.4510
L146.0962 96.4986
" />
<path d="M146.0962 96.4986
L145.7152 96.4986
" />
<path d="M146.7152 96.4510
L147.0486 96.4510
" />
<path d="M147.1914 96.9748
L146.7152 96.9748
" />
<path d="M146.7152 96.9748
L146.7152 95.9748
" />
<path d="M146.7152 95.9748
L147.1914 95.9748
" />
<path d="M147.9533 96.4510
L147.6200 96.4510
" />
<path d="M147.6200 96.9748
L147.6200 95.9748
" />
<path d="M147.6200 95.9748
L148.0962 95.9748
" />
<path d="M148.6200 95.9748
L148.6200 96.2129
" />
<path d="M148.3819 96.1177
L148.6200 96.2129
" />
<path d="M148.6200 96.2129
L148.8581 96.1177
" />
<path d="M148.4771 96.4034
L148.6200 96.2129
" />
<path d="M148.6200 96.2129
L148.7629 96.4034
" />
<path d="M149.3819 95.9748
L149.3819 96.2129
" />
<path d="M149.1438 96.1177
L149.3819 96.2129
" />
<path d="M149.3819 96.2129
L149.6200 96.1177
" />
<path d="M149.2390 96.4034
L149.3819 96.2129
" />
<path d="M149.3819 96.2129
L149.5248 96.4034
" />
</g><text x="104.4400" y="56.3800"
textLength="4.5357" font-size="1.3333" lengthAdjust="spacingAndGlyphs"
text-anchor="middle" opacity="0">REF**</text>
<g class="stroked-text"><desc>REF**</desc>
<path d="M103.1067 56.3348
L102.7733 55.8586
" />
<path d="M102.5352 56.3348
L102.5352 55.3348
" />
<path d="M102.5352 55.3348
L102.9162 55.3348
" />
<path d="M102.9162 55.3348
L103.0114 55.3824
" />
<path d="M103.0114 55.3824
L103.0590 55.4301
" />
<path d="M103.0590 55.4301
L103.1067 55.5253
" />
<path d="M103.1067 55.5253
L103.1067 55.6682
" />
<path d="M103.1067 55.6682
L103.0590 55.7634
" />
<path d="M103.0590 55.7634
L103.0114 55.8110
" />
<path d="M103.0114 55.8110
L102.9162 55.8586
" />
<path d="M102.9162 55.8586
L102.5352 55.8586
" />
<path d="M103.5352 55.8110
L103.8686 55.8110
" />
<path d="M104.0114 56.3348
L103.5352 56.3348
" />
<path d="M103.5352 56.3348
L103.5352 55.3348
" />
<path d="M103.5352 55.3348
L104.0114 55.3348
" />
<path d="M104.7733 55.8110
L104.4400 55.8110
" />
<path d="M104.4400 56.3348
L104.4400 55.3348
" />
<path d="M104.4400 55.3348
L104.9162 55.3348
" />
<path d="M105.4400 55.3348
L105.4400 55.5729
" />
<path d="M105.2019 55.4777
L105.4400 55.5729
" />
<path d="M105.4400 55.5729
L105.6781 55.4777
" />
<path d="M105.2971 55.7634
L105.4400 55.5729
" />
<path d="M105.4400 55.5729
L105.5829 55.7634
" />
<path d="M106.2019 55.3348
L106.2019 55.5729
" />
<path d="M105.9638 55.4777
L106.2019 55.5729
" />
<path d="M106.2019 55.5729
L106.4400 55.4777
" />
<path d="M106.0590 55.7634
L106.2019 55.5729
" />
<path d="M106.2019 55.5729
L106.3448 55.7634
" />
</g><text x="147.6200" y="56.3800"
textLength="4.5357" font-size="1.3333" lengthAdjust="spacingAndGlyphs"
text-anchor="middle" opacity="0">REF**</text>
<g class="stroked-text"><desc>REF**</desc>
<path d="M146.2867 56.3348
L145.9533 55.8586
" />
<path d="M145.7152 56.3348
L145.7152 55.3348
" />
<path d="M145.7152 55.3348
L146.0962 55.3348
" />
<path d="M146.0962 55.3348
L146.1914 55.3824
" />
<path d="M146.1914 55.3824
L146.2390 55.4301
" />
<path d="M146.2390 55.4301
L146.2867 55.5253
" />
<path d="M146.2867 55.5253
L146.2867 55.6682
" />
<path d="M146.2867 55.6682
L146.2390 55.7634
" />
<path d="M146.2390 55.7634
L146.1914 55.8110
" />
<path d="M146.1914 55.8110
L146.0962 55.8586
" />
<path d="M146.0962 55.8586
L145.7152 55.8586
" />
<path d="M146.7152 55.8110
L147.0486 55.8110
" />
<path d="M147.1914 56.3348
L146.7152 56.3348
" />
<path d="M146.7152 56.3348
L146.7152 55.3348
" />
<path d="M146.7152 55.3348
L147.1914 55.3348
" />
<path d="M147.9533 55.8110
L147.6200 55.8110
" />
<path d="M147.6200 56.3348
L147.6200 55.3348
" />
<path d="M147.6200 55.3348
L148.0962 55.3348
" />
<path d="M148.6200 55.3348
L148.6200 55.5729
" />
<path d="M148.3819 55.4777
L148.6200 55.5729
" />
<path d="M148.6200 55.5729
L148.8581 55.4777
" />
<path d="M148.4771 55.7634
L148.6200 55.5729
" />
<path d="M148.6200 55.5729
L148.7629 55.7634
" />
<path d="M149.3819 55.3348
L149.3819 55.5729
" />
<path d="M149.1438 55.4777
L149.3819 55.5729
" />
<path d="M149.3819 55.5729
L149.6200 55.4777
" />
<path d="M149.2390 55.7634
L149.3819 55.5729
" />
<path d="M149.3819 55.5729
L149.5248 55.7634
" />
</g><g >
</g>
<g >
</g>
<g >
</g>
<g >
</g>
<g >
</g>
<g >
</g>
<g >
</g>
<g >
</g>
</g> 
</svg>
