<!DOCTYPE svg PUBLIC "-//W3C//DTD SVG 1.1//EN" "http://www.w3.org/Graphics/SVG/1.1/DTD/svg11.dtd">
<svg xmlns="http://www.w3.org/2000/svg" version="1.1" width="53.439999mm" height="50.9mm" viewBox="99.01 50.75 53.43999999999998 50.900000000000006">
            <title>Picture generated by PcbDraw </title>
            <desc>Picture generated by PcbDraw</desc>
        <defs><clipPath id="cut-off"><path d="M99.0600 101.6000 L99.0600 50.8000 M 152.4 50.8 L 152.4 101.6 L 99.06 101.6 L 99.06 50.8 L 152.4 50.8 " style="fill-rule: evenodd;"/></clipPath><mask id="pads-mask"><g style="fill:#ffffff; fill-opacity:0.0;  stroke:#ffffff; stroke-width:0.0000; stroke-opacity:1;  stroke-linecap:round; stroke-linejoin:round;">
<g style="fill:#ffffff; fill-opacity:1.0000;  stroke:#ffffff; stroke-width:0.0000; stroke-opacity:1;  stroke-linecap:round; stroke-linejoin:round;">
<circle cx="104.1400" cy="96.5200" r="3.0000"/> 
</g>
<g style="fill:#ffffff; fill-opacity:1.0000;  stroke:#ffffff; stroke-width:0.0000; stroke-opacity:1;  stroke-linecap:round; stroke-linejoin:round;">
<circle cx="118.0990" cy="85.3550" r="1.0900"/> 
</g>
<g style="fill:#ffffff; fill-opacity:1.0000;  stroke:#ffffff; stroke-width:0.0000; stroke-opacity:1;  stroke-linecap:round; stroke-linejoin:round;">
<circle cx="136.5590" cy="85.3550" r="1.0900"/> 
</g>
<g style="fill:#ffffff; fill-opacity:1.0000;  stroke:#ffffff; stroke-width:0.0000; stroke-opacity:1;  stroke-linecap:round; stroke-linejoin:round;">
<circle cx="122.2490" cy="86.2850" r="0.8500"/> 
</g>
<g style="fill:#ffffff; fill-opacity:1.0000;  stroke:#ffffff; stroke-width:0.0000; stroke-opacity:1;  stroke-linecap:round; stroke-linejoin:round;">
<path style="fill:#ffffff; fill-opacity:1.0000;  stroke:#ffffff; stroke-width:0.0000; stroke-opacity:1;  stroke-linecap:round; stroke-linejoin:round;fill-rule:evenodd;" d="M 123.9390,87.1350 123.9390,85.4350 125.6390,85.4350 125.6390,87.1350 Z"/> 
<path style="fill:#ffffff; fill-opacity:1.0000;  stroke:#ffffff; stroke-width:0.0000; stroke-opacity:1;  stroke-linecap:round; stroke-linejoin:round;fill-rule:evenodd;" d="M 126.4790,87.1350 126.4790,85.4350 128.1790,85.4350 128.1790,87.1350 Z"/> 
<circle cx="129.8690" cy="86.2850" r="0.8500"/> 
</g>
<g style="fill:#ffffff; fill-opacity:1.0000;  stroke:#ffffff; stroke-width:0.0000; stroke-opacity:1;  stroke-linecap:round; stroke-linejoin:round;">
<circle cx="132.4090" cy="86.2850" r="0.8500"/> 
</g>
<g style="fill:#ffffff; fill-opacity:1.0000;  stroke:#ffffff; stroke-width:0.0000; stroke-opacity:1;  stroke-linecap:round; stroke-linejoin:round;">
<circle cx="147.3200" cy="96.5200" r="3.0000"/> 
</g>
<g style="fill:#ffffff; fill-opacity:1.0000;  stroke:#ffffff; stroke-width:0.0000; stroke-opacity:1;  stroke-linecap:round; stroke-linejoin:round;">
<circle cx="104.1400" cy="55.8800" r="3.0000"/> 
</g>
<g style="fill:#ffffff; fill-opacity:1.0000;  stroke:#ffffff; stroke-width:0.0000; stroke-opacity:1;  stroke-linecap:round; stroke-linejoin:round;">
<circle cx="147.3200" cy="55.8800" r="3.0000"/> 
</g>
</g> 
</mask><mask id="pads-mask-silkscreen"><rect x="99.01" y="50.75" width="53.44" height="50.9" fill="white"/><g style="fill:#000000; fill-opacity:0.0;  stroke:#000000; stroke-width:0.0000; stroke-opacity:1;  stroke-linecap:round; stroke-linejoin:round;">
<g style="fill:#000000; fill-opacity:1.0000;  stroke:#000000; stroke-width:0.0000; stroke-opacity:1;  stroke-linecap:round; stroke-linejoin:round;">
<circle cx="104.1400" cy="96.5200" r="3.0000"/> 
</g>
<g style="fill:#000000; fill-opacity:1.0000;  stroke:#000000; stroke-width:0.0000; stroke-opacity:1;  stroke-linecap:round; stroke-linejoin:round;">
<circle cx="118.0990" cy="85.3550" r="1.0900"/> 
</g>
<g style="fill:#000000; fill-opacity:1.0000;  stroke:#000000; stroke-width:0.0000; stroke-opacity:1;  stroke-linecap:round; stroke-linejoin:round;">
<circle cx="136.5590" cy="85.3550" r="1.0900"/> 
</g>
<g style="fill:#000000; fill-opacity:1.0000;  stroke:#000000; stroke-width:0.0000; stroke-opacity:1;  stroke-linecap:round; stroke-linejoin:round;">
<circle cx="122.2490" cy="86.2850" r="0.8500"/> 
</g>
<g style="fill:#000000; fill-opacity:1.0000;  stroke:#000000; stroke-width:0.0000; stroke-opacity:1;  stroke-linecap:round; stroke-linejoin:round;">
<path style="fill:#000000; fill-opacity:1.0000;  stroke:#000000; stroke-width:0.0000; stroke-opacity:1;  stroke-linecap:round; stroke-linejoin:round;fill-rule:evenodd;" d="M 123.9390,87.1350 123.9390,85.4350 125.6390,85.4350 125.6390,87.1350 Z"/> 
<path style="fill:#000000; fill-opacity:1.0000;  stroke:#000000; stroke-width:0.0000; stroke-opacity:1;  stroke-linecap:round; stroke-linejoin:round;fill-rule:evenodd;" d="M 126.4790,87.1350 126.4790,85.4350 128.1790,85.4350 128.1790,87.1350 Z"/> 
<circle cx="129.8690" cy="86.2850" r="0.8500"/> 
</g>
<g style="fill:#000000; fill-opacity:1.0000;  stroke:#000000; stroke-width:0.0000; stroke-opacity:1;  stroke-linecap:round; stroke-linejoin:round;">
<circle cx="132.4090" cy="86.2850" r="0.8500"/> 
</g>
<g style="fill:#000000; fill-opacity:1.0000;  stroke:#000000; stroke-width:0.0000; stroke-opacity:1;  stroke-linecap:round; stroke-linejoin:round;">
<circle cx="147.3200" cy="96.5200" r="3.0000"/> 
</g>
<g style="fill:#000000; fill-opacity:1.0000;  stroke:#000000; stroke-width:0.0000; stroke-opacity:1;  stroke-linecap:round; stroke-linejoin:round;">
<circle cx="104.1400" cy="55.8800" r="3.0000"/> 
</g>
<g style="fill:#000000; fill-opacity:1.0000;  stroke:#000000; stroke-width:0.0000; stroke-opacity:1;  stroke-linecap:round; stroke-linejoin:round;">
<circle cx="147.3200" cy="55.8800" r="3.0000"/> 
</g>
</g> 
</mask><mask id="hole-mask"><g><rect x="99.01" y="50.75" fill="white" width="53.44" height="50.9"/><polyline stroke-linecap="round" stroke="black" stroke-width="3.2" points="-0.0 0 0.0 0" transform="translate(104.14 96.52) rotate(-0.0)"/><polyline stroke-linecap="round" stroke="black" stroke-width="2.18" points="-0.0 0 0.0 0" transform="translate(118.099 85.355) rotate(-90.0)"/><polyline stroke-linecap="round" stroke="black" stroke-width="2.18" points="-0.0 0 0.0 0" transform="translate(136.559 85.355) rotate(-90.0)"/><polyline stroke-linecap="round" stroke="black" stroke-width="1.0" points="-0.0 0 0.0 0" transform="translate(122.249 86.285) rotate(-0.0)"/><polyline stroke-linecap="round" stroke="black" stroke-width="1.0" points="-0.0 0 0.0 0" transform="translate(124.789 86.285) rotate(-0.0)"/><polyline stroke-linecap="round" stroke="black" stroke-width="1.0" points="-0.0 0 0.0 0" transform="translate(127.329 86.285) rotate(-0.0)"/><polyline stroke-linecap="round" stroke="black" stroke-width="1.0" points="-0.0 0 0.0 0" transform="translate(129.869 86.285) rotate(-0.0)"/><polyline stroke-linecap="round" stroke="black" stroke-width="1.0" points="-0.0 0 0.0 0" transform="translate(132.409 86.285) rotate(-90.0)"/><polyline stroke-linecap="round" stroke="black" stroke-width="3.2" points="-0.0 0 0.0 0" transform="translate(147.32 96.52) rotate(-0.0)"/><polyline stroke-linecap="round" stroke="black" stroke-width="3.2" points="-0.0 0 0.0 0" transform="translate(104.14 55.88) rotate(-0.0)"/><polyline stroke-linecap="round" stroke="black" stroke-width="3.2" points="-0.0 0 0.0 0" transform="translate(147.32 55.88) rotate(-0.0)"/></g></mask></defs><g transform="" id="boardContainer"><g id="substrate" clip-path="url(#cut-off)" mask="url(#hole-mask)"><g id="substrate-board" style="fill:#208b47; stroke:#208b47;"><path d="M99.0600 101.6000 L99.0600 50.8000 M 152.4 50.8 L 152.4 101.6 L 99.06 101.6 L 99.06 50.8 L 152.4 50.8 " style="fill-rule: evenodd;"/><g style="fill-opacity: 0.0;stroke-width: 0.1000;stroke-opacity: 1;stroke-linecap: round;stroke-linejoin: round">
<path style="fill-opacity: 0.0;stroke-width: 0.1000;stroke-opacity: 1;stroke-linecap: round;stroke-linejoin: round" d="M 99.0600,50.8000 152.4000,50.8000 152.4000,101.6000 99.0600,101.6000 Z"/> 
</g> 
</g><g id="substrate-clad" style="fill:#332B16; stroke:#332B16;"><g style="fill-opacity: 0.0;stroke-width: 0.0000;stroke-opacity: 1;stroke-linecap: round;stroke-linejoin: round">
<g style="fill-opacity: 1.0000;stroke-width: 0.0000;stroke-opacity: 1;stroke-linecap: round;stroke-linejoin: round">
<circle cx="104.1400" cy="96.5200" r="3.0000"/> 
</g>
<g style="fill-opacity: 1.0000;stroke-width: 0.0000;stroke-opacity: 1;stroke-linecap: round;stroke-linejoin: round">
<circle cx="118.0990" cy="85.3550" r="1.0900"/> 
</g>
<g style="fill-opacity: 1.0000;stroke-width: 0.0000;stroke-opacity: 1;stroke-linecap: round;stroke-linejoin: round">
<circle cx="136.5590" cy="85.3550" r="1.0900"/> 
</g>
<g style="fill-opacity: 1.0000;stroke-width: 0.0000;stroke-opacity: 1;stroke-linecap: round;stroke-linejoin: round">
<circle cx="122.2490" cy="86.2850" r="0.8500"/> 
</g>
<g style="fill-opacity: 1.0000;stroke-width: 0.0000;stroke-opacity: 1;stroke-linecap: round;stroke-linejoin: round">
<path style="fill-opacity: 1.0000;stroke-width: 0.0000;stroke-opacity: 1;stroke-linecap: round;stroke-linejoin: round;fill-rule: evenodd" d="M 123.9390,87.1350 123.9390,85.4350 125.6390,85.4350 125.6390,87.1350 Z"/> 
<path style="fill-opacity: 1.0000;stroke-width: 0.0000;stroke-opacity: 1;stroke-linecap: round;stroke-linejoin: round;fill-rule: evenodd" d="M 126.4790,87.1350 126.4790,85.4350 128.1790,85.4350 128.1790,87.1350 Z"/> 
<circle cx="129.8690" cy="86.2850" r="0.8500"/> 
</g>
<g style="fill-opacity: 1.0000;stroke-width: 0.0000;stroke-opacity: 1;stroke-linecap: round;stroke-linejoin: round">
<circle cx="132.4090" cy="86.2850" r="0.8500"/> 
</g>
<g style="fill-opacity: 1.0000;stroke-width: 0.0000;stroke-opacity: 1;stroke-linecap: round;stroke-linejoin: round">
<circle cx="147.3200" cy="96.5200" r="3.0000"/> 
</g>
<g style="fill-opacity: 1.0000;stroke-width: 0.0000;stroke-opacity: 1;stroke-linecap: round;stroke-linejoin: round">
<circle cx="104.1400" cy="55.8800" r="3.0000"/> 
</g>
<g style="fill-opacity: 1.0000;stroke-width: 0.0000;stroke-opacity: 1;stroke-linecap: round;stroke-linejoin: round">
<circle cx="147.3200" cy="55.8800" r="3.0000"/> 
</g>
</g> 
</g><g id="substrate-copper" style="fill:#285e3a; stroke:#285e3a;"><g style="fill-opacity: 0.0;stroke-width: 0.0000;stroke-opacity: 1;stroke-linecap: round;stroke-linejoin: round">
<g style="fill-opacity: 1.0000;stroke-width: 0.0000;stroke-opacity: 1;stroke-linecap: round;stroke-linejoin: round">
<circle cx="104.1400" cy="96.5200" r="3.0000"/> 
</g>
<g style="fill-opacity: 1.0000;stroke-width: 0.0000;stroke-opacity: 1;stroke-linecap: round;stroke-linejoin: round">
<circle cx="122.2490" cy="86.2850" r="0.8500"/> 
</g>
<g style="fill-opacity: 1.0000;stroke-width: 0.0000;stroke-opacity: 1;stroke-linecap: round;stroke-linejoin: round">
<path style="fill-opacity: 1.0000;stroke-width: 0.0000;stroke-opacity: 1;stroke-linecap: round;stroke-linejoin: round;fill-rule: evenodd" d="M 123.9390,87.1350 123.9390,85.4350 125.6390,85.4350 125.6390,87.1350 Z"/> 
<path style="fill-opacity: 1.0000;stroke-width: 0.0000;stroke-opacity: 1;stroke-linecap: round;stroke-linejoin: round;fill-rule: evenodd" d="M 126.4790,87.1350 126.4790,85.4350 128.1790,85.4350 128.1790,87.1350 Z"/> 
<circle cx="129.8690" cy="86.2850" r="0.8500"/> 
</g>
<g style="fill-opacity: 1.0000;stroke-width: 0.0000;stroke-opacity: 1;stroke-linecap: round;stroke-linejoin: round">
<circle cx="132.4090" cy="86.2850" r="0.8500"/> 
</g>
<g style="fill-opacity: 1.0000;stroke-width: 0.0000;stroke-opacity: 1;stroke-linecap: round;stroke-linejoin: round">
<circle cx="147.3200" cy="96.5200" r="3.0000"/> 
</g>
<g style="fill-opacity: 1.0000;stroke-width: 0.0000;stroke-opacity: 1;stroke-linecap: round;stroke-linejoin: round">
<circle cx="104.1400" cy="55.8800" r="3.0000"/> 
</g>
<g style="fill-opacity: 1.0000;stroke-width: 0.0000;stroke-opacity: 1;stroke-linecap: round;stroke-linejoin: round">
<circle cx="147.3200" cy="55.8800" r="3.0000"/> 
</g>
<g style="fill-opacity: 1.0000;stroke-width: 0.0212;stroke-opacity: 1;stroke-linecap: round;stroke-linejoin: round">
<g style="fill-opacity: 1.0000;stroke-width: 0.0000;stroke-opacity: 1;stroke-linecap: round;stroke-linejoin: round">
<path style="fill-opacity: 1.0000;stroke-width: 0.0000;stroke-opacity: 1;stroke-linecap: round;stroke-linejoin: round;fill-rule: evenodd" d="M 152.3587,50.8194 152.3947,50.8689 152.3995,50.8995 152.3995,101.5005 152.3806,101.5587 152.3311,101.5947 152.3005,101.5995 99.1595,101.5995 99.1013,101.5806 99.0653,101.5311 99.0605,101.5005 99.0605,96.5200 100.9345,96.5200 100.9546,96.8789 100.9546,96.8789 101.0148,97.2333 101.0148,97.2333 101.1143,97.5787 101.2519,97.9108 101.4258,98.2254 101.4258,98.2255 101.6338,98.5186 101.8733,98.7867 102.1414,99.0262 102.4345,99.2342 102.4346,99.2342 102.7492,99.4081 102.7492,99.4081 103.0813,99.5457 103.4267,99.6452 103.4267,99.6452 103.4267,99.6452 103.7811,99.7054 103.7811,99.7054 103.7811,99.7054 104.1400,99.7255 104.1400,99.7255 104.1400,99.7255 104.4989,99.7054 104.4989,99.7054 104.4989,99.7054 104.8533,99.6452 105.1987,99.5457 105.5308,99.4081 105.8455,99.2342 106.1386,99.0262 106.4067,98.7867 106.6462,98.5186 106.8542,98.2255 107.0281,97.9108 107.1657,97.5787 107.2652,97.2333 107.3254,96.8789 107.3455,96.5200 144.1145,96.5200 144.1346,96.8789 144.1346,96.8789 144.1948,97.2333 144.1948,97.2333 144.2943,97.5787 144.4319,97.9108 144.6058,98.2254 144.6058,98.2255 144.8138,98.5186 145.0533,98.7867 145.3214,99.0262 145.6145,99.2342 145.6145,99.2342 145.9292,99.4081 145.9292,99.4081 146.2613,99.5457 146.6067,99.6452 146.6067,99.6452 146.6067,99.6452 146.9611,99.7054 146.9611,99.7054 146.9611,99.7054 147.3200,99.7255 147.3200,99.7255 147.3200,99.7255 147.6789,99.7054 147.6789,99.7054 147.6789,99.7054 148.0333,99.6452 148.3787,99.5457 148.7108,99.4081 149.0255,99.2342 149.3186,99.0262 149.5867,98.7867 149.8262,98.5186 150.0342,98.2255 150.2081,97.9108 150.3457,97.5787 150.4452,97.2333 150.5054,96.8789 150.5255,96.5200 150.5054,96.1611 150.4452,95.8067 150.3457,95.4613 150.2081,95.1292 150.2081,95.1292 150.0342,94.8145 149.8262,94.5214 149.8262,94.5214 149.8262,94.5214 149.5867,94.2533 149.3186,94.0138 149.3186,94.0138 149.3186,94.0138 149.0254,93.8058 148.7108,93.6319 148.7108,93.6319 148.3787,93.4943 148.0333,93.3948 148.0333,93.3948 147.6789,93.3346 147.6789,93.3346 147.3200,93.3145 147.3200,93.3145 146.9611,93.3346 146.9611,93.3346 146.6067,93.3948 146.6067,93.3948 146.2613,93.4943 145.9292,93.6319 145.6145,93.8058 145.3214,94.0138 145.0533,94.2533 145.0533,94.2533 144.8138,94.5214 144.6058,94.8145 144.4319,95.1292 144.2943,95.4613 144.1948,95.8067 144.1948,95.8067 144.1346,96.1611 144.1346,96.1611 144.1145,96.5200 144.1145,96.5200 107.3455,96.5200 107.3455,96.5200 107.3254,96.1611 107.2652,95.8067 107.1657,95.4613 107.0281,95.1292 107.0281,95.1292 106.8542,94.8145 106.6462,94.5214 106.6462,94.5214 106.6462,94.5214 106.4067,94.2533 106.1386,94.0138 106.1386,94.0138 106.1386,94.0138 105.8454,93.8058 105.5308,93.6319 105.5308,93.6319 105.1987,93.4943 104.8533,93.3948 104.8533,93.3948 104.4989,93.3346 104.4989,93.3346 104.1400,93.3145 104.1400,93.3145 103.7811,93.3346 103.7811,93.3346 103.4267,93.3948 103.4267,93.3948 103.0813,93.4943 102.7492,93.6319 102.4346,93.8058 102.1414,94.0138 101.8733,94.2533 101.8733,94.2533 101.6338,94.5214 101.4258,94.8145 101.2519,95.1292 101.1143,95.4613 101.0148,95.8067 101.0148,95.8067 100.9546,96.1611 100.9546,96.1611 100.9345,96.5200 100.9345,96.5200 99.0605,96.5200 99.0605,85.3550 116.8036,85.3550 116.8232,85.5799 116.8232,85.5799 116.8233,85.5799 116.8817,85.7981 116.9771,86.0027 117.1066,86.1877 117.2663,86.3474 117.4513,86.4769 117.6559,86.5723 117.8741,86.6307 117.8741,86.6307 117.8741,86.6308 118.0426,86.6455 118.0426,86.6455 118.1554,86.6455 118.3239,86.6308 118.3239,86.6307 118.3239,86.6307 118.5421,86.5723 118.7467,86.4769 118.9317,86.3474 118.9940,86.2850 121.1934,86.2850 121.2137,86.4909 121.2137,86.4909 121.2738,86.6890 121.3713,86.8715 121.5026,87.0314 121.5026,87.0314 121.5026,87.0314 121.6625,87.1627 121.6625,87.1627 121.6625,87.1627 121.8450,87.2602 121.9830,87.3021 122.0431,87.3203 122.0431,87.3203 122.2490,87.3406 122.2490,87.3406 122.2490,87.3406 122.4549,87.3203 122.4549,87.3203 122.6530,87.2602 122.8354,87.1627 122.8451,87.1547 123.7385,87.1547 123.7385,87.1548 123.7501,87.2132 123.7501,87.2132 123.7944,87.2795 123.7944,87.2796 123.8608,87.3239 123.9052,87.3327 123.9192,87.3355 123.9192,87.3355 123.9193,87.3355 123.9193,87.3355 125.6587,87.3355 125.6587,87.3355 125.7172,87.3239 125.7836,87.2796 125.8279,87.2132 125.8395,87.1547 125.8395,87.1547 126.2785,87.1547 126.2785,87.1548 126.2901,87.2132 126.2901,87.2132 126.3344,87.2795 126.3344,87.2796 126.4008,87.3239 126.4452,87.3327 126.4592,87.3355 126.4592,87.3355 126.4593,87.3355 126.4593,87.3355 128.1987,87.3355 128.1987,87.3355 128.2572,87.3239 128.3236,87.2796 128.3679,87.2132 128.3795,87.1547 128.3795,86.2850 128.8134,86.2850 128.8337,86.4909 128.8337,86.4909 128.8938,86.6890 128.9913,86.8715 129.1226,87.0314 129.1226,87.0314 129.1226,87.0314 129.2825,87.1627 129.2825,87.1627 129.2825,87.1627 129.4650,87.2602 129.6030,87.3021 129.6631,87.3203 129.6631,87.3203 129.8690,87.3406 129.8690,87.3406 129.8690,87.3406 130.0749,87.3203 130.0749,87.3203 130.2730,87.2602 130.4554,87.1627 130.6154,87.0314 130.7467,86.8714 130.8442,86.6890 130.9043,86.4909 130.9043,86.4909 130.9246,86.2850 131.3534,86.2850 131.3737,86.4909 131.3737,86.4909 131.4338,86.6890 131.5313,86.8715 131.6626,87.0314 131.6626,87.0314 131.6626,87.0314 131.8225,87.1627 131.8225,87.1627 131.8226,87.1627 132.0050,87.2602 132.1430,87.3021 132.2031,87.3203 132.2031,87.3203 132.4090,87.3406 132.4090,87.3406 132.4090,87.3406 132.6149,87.3203 132.6149,87.3203 132.8130,87.2602 132.9955,87.1627 133.1554,87.0314 133.2867,86.8714 133.3842,86.6890 133.4443,86.4909 133.4443,86.4909 133.4646,86.2850 133.4646,86.2850 133.4443,86.0791 133.4443,86.0791 133.4211,86.0027 133.3842,85.8810 133.2867,85.6985 133.1554,85.5386 133.0051,85.4153 132.9955,85.4073 132.8976,85.3550 135.2636,85.3550 135.2832,85.5799 135.2832,85.5799 135.2832,85.5799 135.3417,85.7981 135.4371,86.0027 135.5666,86.1877 135.7263,86.3474 135.9113,86.4769 136.1159,86.5723 136.3341,86.6307 136.3341,86.6307 136.3341,86.6308 136.5026,86.6455 136.5026,86.6455 136.6154,86.6455 136.7839,86.6308 136.7839,86.6307 136.7839,86.6307 137.0021,86.5723 137.2067,86.4769 137.3917,86.3474 137.5514,86.1877 137.6809,86.0027 137.7763,85.7981 137.8347,85.5799 137.8384,85.5386 137.8544,85.3550 137.8544,85.3550 137.8348,85.1301 137.8347,85.1301 137.8347,85.1301 137.7763,84.9119 137.6809,84.7073 137.5514,84.5223 137.3917,84.3626 137.3917,84.3626 137.3917,84.3626 137.2891,84.2908 137.2067,84.2331 137.0021,84.1377 136.7839,84.0793 136.7839,84.0792 136.7839,84.0792 136.6154,84.0645 136.6154,84.0645 136.5026,84.0645 136.5026,84.0645 136.3341,84.0792 136.3341,84.0793 136.1159,84.1377 136.0205,84.1822 135.9113,84.2331 135.7263,84.3626 135.5666,84.5223 135.4371,84.7073 135.3417,84.9119 135.2832,85.1301 135.2636,85.3550 135.2636,85.3550 132.8976,85.3550 132.8130,85.3098 132.6149,85.2497 132.6149,85.2497 132.4090,85.2294 132.4090,85.2294 132.2031,85.2497 132.2031,85.2497 132.0050,85.3098 131.8225,85.4073 131.6626,85.5386 131.6626,85.5386 131.5313,85.6985 131.4338,85.8810 131.3737,86.0791 131.3737,86.0791 131.3534,86.2850 131.3534,86.2850 130.9246,86.2850 130.9246,86.2850 130.9043,86.0791 130.9043,86.0791 130.8811,86.0027 130.8442,85.8810 130.7467,85.6985 130.6154,85.5386 130.4651,85.4153 130.4555,85.4073 130.2730,85.3098 130.0749,85.2497 130.0749,85.2497 129.8690,85.2294 129.8690,85.2294 129.6631,85.2497 129.6631,85.2497 129.4650,85.3098 129.2825,85.4073 129.1226,85.5386 129.1226,85.5386 128.9913,85.6985 128.8938,85.8810 128.8337,86.0791 128.8337,86.0791 128.8134,86.2850 128.8134,86.2850 128.3795,86.2850 128.3795,85.4153 128.3779,85.4073 128.3767,85.4012 128.3679,85.3568 128.3236,85.2904 128.3235,85.2904 128.2572,85.2461 128.2572,85.2461 128.2572,85.2461 128.2572,85.2461 128.1988,85.2345 128.1987,85.2345 126.4593,85.2345 126.4593,85.2345 126.4592,85.2345 126.4008,85.2461 126.4008,85.2461 126.3345,85.2904 126.3344,85.2905 126.2901,85.3568 126.2901,85.3568 126.2785,85.4152 126.2785,85.4153 126.2785,87.1547 125.8395,87.1547 125.8395,85.4153 125.8379,85.4073 125.8367,85.4012 125.8279,85.3568 125.7836,85.2904 125.7835,85.2904 125.7172,85.2461 125.7172,85.2461 125.7172,85.2461 125.7172,85.2461 125.6588,85.2345 125.6587,85.2345 123.9193,85.2345 123.9193,85.2345 123.9192,85.2345 123.8608,85.2461 123.8608,85.2461 123.7945,85.2904 123.7944,85.2905 123.7501,85.3568 123.7501,85.3568 123.7385,85.4152 123.7385,85.4153 123.7385,87.1547 122.8451,87.1547 122.9954,87.0314 123.1267,86.8714 123.2242,86.6890 123.2843,86.4909 123.2843,86.4909 123.3046,86.2850 123.3046,86.2850 123.2843,86.0791 123.2843,86.0791 123.2611,86.0027 123.2242,85.8810 123.1267,85.6985 122.9954,85.5386 122.8451,85.4153 122.8355,85.4073 122.6530,85.3098 122.4549,85.2497 122.4549,85.2497 122.2490,85.2294 122.2490,85.2294 122.0431,85.2497 122.0431,85.2497 121.8450,85.3098 121.6625,85.4073 121.5026,85.5386 121.5026,85.5386 121.3713,85.6985 121.2738,85.8810 121.2137,86.0791 121.2137,86.0791 121.1934,86.2850 121.1934,86.2850 118.9940,86.2850 119.0914,86.1877 119.2209,86.0027 119.3163,85.7981 119.3747,85.5799 119.3784,85.5386 119.3944,85.3550 119.3944,85.3550 119.3748,85.1301 119.3747,85.1301 119.3747,85.1301 119.3163,84.9119 119.2209,84.7073 119.0914,84.5223 118.9317,84.3626 118.9317,84.3626 118.9317,84.3626 118.8291,84.2908 118.7467,84.2331 118.5421,84.1377 118.3239,84.0793 118.3239,84.0792 118.3239,84.0792 118.1554,84.0645 118.1554,84.0645 118.0426,84.0645 118.0426,84.0645 117.8741,84.0792 117.8741,84.0793 117.6559,84.1377 117.5605,84.1822 117.4513,84.2331 117.2663,84.3626 117.1066,84.5223 116.9771,84.7073 116.8817,84.9119 116.8232,85.1301 116.8036,85.3550 116.8036,85.3550 99.0605,85.3550 99.0605,55.8800 100.9345,55.8800 100.9546,56.2389 100.9546,56.2389 101.0148,56.5933 101.0148,56.5933 101.1143,56.9387 101.2519,57.2708 101.4258,57.5854 101.4258,57.5855 101.6338,57.8786 101.8733,58.1467 102.1414,58.3862 102.4345,58.5942 102.4346,58.5942 102.7492,58.7681 102.7492,58.7681 103.0813,58.9057 103.4267,59.0052 103.4267,59.0052 103.4267,59.0052 103.7811,59.0654 103.7811,59.0654 103.7811,59.0654 104.1400,59.0855 104.1400,59.0855 104.1400,59.0855 104.4989,59.0654 104.4989,59.0654 104.4989,59.0654 104.8533,59.0052 105.1987,58.9057 105.5308,58.7681 105.8455,58.5942 106.1386,58.3862 106.4067,58.1467 106.6462,57.8786 106.8542,57.5855 107.0281,57.2708 107.1657,56.9387 107.2652,56.5933 107.3254,56.2389 107.3455,55.8800 144.1145,55.8800 144.1346,56.2389 144.1346,56.2389 144.1948,56.5933 144.1948,56.5933 144.2943,56.9387 144.4319,57.2708 144.6058,57.5854 144.6058,57.5855 144.8138,57.8786 145.0533,58.1467 145.3214,58.3862 145.6145,58.5942 145.6145,58.5942 145.9292,58.7681 145.9292,58.7681 146.2613,58.9057 146.6067,59.0052 146.6067,59.0052 146.6067,59.0052 146.9611,59.0654 146.9611,59.0654 146.9611,59.0654 147.3200,59.0855 147.3200,59.0855 147.3200,59.0855 147.6789,59.0654 147.6789,59.0654 147.6789,59.0654 148.0333,59.0052 148.3787,58.9057 148.7108,58.7681 149.0255,58.5942 149.3186,58.3862 149.5867,58.1467 149.8262,57.8786 150.0342,57.5855 150.2081,57.2708 150.3457,56.9387 150.4452,56.5933 150.5054,56.2389 150.5255,55.8800 150.5054,55.5211 150.4452,55.1667 150.3457,54.8213 150.2081,54.4892 150.2081,54.4892 150.0342,54.1745 149.8262,53.8814 149.8262,53.8814 149.8262,53.8814 149.5867,53.6133 149.3186,53.3738 149.3186,53.3738 149.3186,53.3738 149.0254,53.1658 148.7108,52.9919 148.7108,52.9919 148.3787,52.8543 148.0333,52.7548 148.0333,52.7548 147.6789,52.6946 147.6789,52.6946 147.3200,52.6745 147.3200,52.6745 146.9611,52.6946 146.9611,52.6946 146.6067,52.7548 146.6067,52.7548 146.2613,52.8543 145.9292,52.9919 145.6145,53.1658 145.3214,53.3738 145.0533,53.6133 145.0533,53.6133 144.8138,53.8814 144.6058,54.1745 144.4319,54.4892 144.2943,54.8213 144.1948,55.1667 144.1948,55.1667 144.1346,55.5211 144.1346,55.5211 144.1145,55.8800 144.1145,55.8800 107.3455,55.8800 107.3455,55.8800 107.3254,55.5211 107.2652,55.1667 107.1657,54.8213 107.0281,54.4892 107.0281,54.4892 106.8542,54.1745 106.6462,53.8814 106.6462,53.8814 106.6462,53.8814 106.4067,53.6133 106.1386,53.3738 106.1386,53.3738 106.1386,53.3738 105.8454,53.1658 105.5308,52.9919 105.5308,52.9919 105.1987,52.8543 104.8533,52.7548 104.8533,52.7548 104.4989,52.6946 104.4989,52.6946 104.1400,52.6745 104.1400,52.6745 103.7811,52.6946 103.7811,52.6946 103.4267,52.7548 103.4267,52.7548 103.0813,52.8543 102.7492,52.9919 102.4346,53.1658 102.1414,53.3738 101.8733,53.6133 101.8733,53.6133 101.6338,53.8814 101.4258,54.1745 101.2519,54.4892 101.1143,54.8213 101.0148,55.1667 101.0148,55.1667 100.9546,55.5211 100.9546,55.5211 100.9345,55.8800 100.9345,55.8800 99.0605,55.8800 99.0605,50.8995 99.0794,50.8413 99.1289,50.8053 99.1595,50.8005 152.3005,50.8005 Z"/> 
</g>
</g>
</g> 
</g><g id="substrate-pads" style="fill:#8b898c; stroke:#8b898c;" mask="url(#pads-mask)"><g style="fill-opacity: 0.0;stroke-width: 0.0000;stroke-opacity: 1;stroke-linecap: round;stroke-linejoin: round">
<g style="fill-opacity: 1.0000;stroke-width: 0.0000;stroke-opacity: 1;stroke-linecap: round;stroke-linejoin: round">
<circle cx="104.1400" cy="96.5200" r="3.0000"/> 
</g>
<g style="fill-opacity: 1.0000;stroke-width: 0.0000;stroke-opacity: 1;stroke-linecap: round;stroke-linejoin: round">
<circle cx="122.2490" cy="86.2850" r="0.8500"/> 
</g>
<g style="fill-opacity: 1.0000;stroke-width: 0.0000;stroke-opacity: 1;stroke-linecap: round;stroke-linejoin: round">
<path style="fill-opacity: 1.0000;stroke-width: 0.0000;stroke-opacity: 1;stroke-linecap: round;stroke-linejoin: round;fill-rule: evenodd" d="M 123.9390,87.1350 123.9390,85.4350 125.6390,85.4350 125.6390,87.1350 Z"/> 
<path style="fill-opacity: 1.0000;stroke-width: 0.0000;stroke-opacity: 1;stroke-linecap: round;stroke-linejoin: round;fill-rule: evenodd" d="M 126.4790,87.1350 126.4790,85.4350 128.1790,85.4350 128.1790,87.1350 Z"/> 
<circle cx="129.8690" cy="86.2850" r="0.8500"/> 
</g>
<g style="fill-opacity: 1.0000;stroke-width: 0.0000;stroke-opacity: 1;stroke-linecap: round;stroke-linejoin: round">
<circle cx="132.4090" cy="86.2850" r="0.8500"/> 
</g>
<g style="fill-opacity: 1.0000;stroke-width: 0.0000;stroke-opacity: 1;stroke-linecap: round;stroke-linejoin: round">
<circle cx="147.3200" cy="96.5200" r="3.0000"/> 
</g>
<g style="fill-opacity: 1.0000;stroke-width: 0.0000;stroke-opacity: 1;stroke-linecap: round;stroke-linejoin: round">
<circle cx="104.1400" cy="55.8800" r="3.0000"/> 
</g>
<g style="fill-opacity: 1.0000;stroke-width: 0.0000;stroke-opacity: 1;stroke-linecap: round;stroke-linejoin: round">
<circle cx="147.3200" cy="55.8800" r="3.0000"/> 
</g>
<g style="fill-opacity: 1.0000;stroke-width: 0.0212;stroke-opacity: 1;stroke-linecap: round;stroke-linejoin: round">
<g style="fill-opacity: 1.0000;stroke-width: 0.0000;stroke-opacity: 1;stroke-linecap: round;stroke-linejoin: round">
<path style="fill-opacity: 1.0000;stroke-width: 0.0000;stroke-opacity: 1;stroke-linecap: round;stroke-linejoin: round;fill-rule: evenodd" d="M 152.3587,50.8194 152.3947,50.8689 152.3995,50.8995 152.3995,101.5005 152.3806,101.5587 152.3311,101.5947 152.3005,101.5995 99.1595,101.5995 99.1013,101.5806 99.0653,101.5311 99.0605,101.5005 99.0605,96.5200 100.9345,96.5200 100.9546,96.8789 100.9546,96.8789 101.0148,97.2333 101.0148,97.2333 101.1143,97.5787 101.2519,97.9108 101.4258,98.2254 101.4258,98.2255 101.6338,98.5186 101.8733,98.7867 102.1414,99.0262 102.4345,99.2342 102.4346,99.2342 102.7492,99.4081 102.7492,99.4081 103.0813,99.5457 103.4267,99.6452 103.4267,99.6452 103.4267,99.6452 103.7811,99.7054 103.7811,99.7054 103.7811,99.7054 104.1400,99.7255 104.1400,99.7255 104.1400,99.7255 104.4989,99.7054 104.4989,99.7054 104.4989,99.7054 104.8533,99.6452 105.1987,99.5457 105.5308,99.4081 105.8455,99.2342 106.1386,99.0262 106.4067,98.7867 106.6462,98.5186 106.8542,98.2255 107.0281,97.9108 107.1657,97.5787 107.2652,97.2333 107.3254,96.8789 107.3455,96.5200 144.1145,96.5200 144.1346,96.8789 144.1346,96.8789 144.1948,97.2333 144.1948,97.2333 144.2943,97.5787 144.4319,97.9108 144.6058,98.2254 144.6058,98.2255 144.8138,98.5186 145.0533,98.7867 145.3214,99.0262 145.6145,99.2342 145.6145,99.2342 145.9292,99.4081 145.9292,99.4081 146.2613,99.5457 146.6067,99.6452 146.6067,99.6452 146.6067,99.6452 146.9611,99.7054 146.9611,99.7054 146.9611,99.7054 147.3200,99.7255 147.3200,99.7255 147.3200,99.7255 147.6789,99.7054 147.6789,99.7054 147.6789,99.7054 148.0333,99.6452 148.3787,99.5457 148.7108,99.4081 149.0255,99.2342 149.3186,99.0262 149.5867,98.7867 149.8262,98.5186 150.0342,98.2255 150.2081,97.9108 150.3457,97.5787 150.4452,97.2333 150.5054,96.8789 150.5255,96.5200 150.5054,96.1611 150.4452,95.8067 150.3457,95.4613 150.2081,95.1292 150.2081,95.1292 150.0342,94.8145 149.8262,94.5214 149.8262,94.5214 149.8262,94.5214 149.5867,94.2533 149.3186,94.0138 149.3186,94.0138 149.3186,94.0138 149.0254,93.8058 148.7108,93.6319 148.7108,93.6319 148.3787,93.4943 148.0333,93.3948 148.0333,93.3948 147.6789,93.3346 147.6789,93.3346 147.3200,93.3145 147.3200,93.3145 146.9611,93.3346 146.9611,93.3346 146.6067,93.3948 146.6067,93.3948 146.2613,93.4943 145.9292,93.6319 145.6145,93.8058 145.3214,94.0138 145.0533,94.2533 145.0533,94.2533 144.8138,94.5214 144.6058,94.8145 144.4319,95.1292 144.2943,95.4613 144.1948,95.8067 144.1948,95.8067 144.1346,96.1611 144.1346,96.1611 144.1145,96.5200 144.1145,96.5200 107.3455,96.5200 107.3455,96.5200 107.3254,96.1611 107.2652,95.8067 107.1657,95.4613 107.0281,95.1292 107.0281,95.1292 106.8542,94.8145 106.6462,94.5214 106.6462,94.5214 106.6462,94.5214 106.4067,94.2533 106.1386,94.0138 106.1386,94.0138 106.1386,94.0138 105.8454,93.8058 105.5308,93.6319 105.5308,93.6319 105.1987,93.4943 104.8533,93.3948 104.8533,93.3948 104.4989,93.3346 104.4989,93.3346 104.1400,93.3145 104.1400,93.3145 103.7811,93.3346 103.7811,93.3346 103.4267,93.3948 103.4267,93.3948 103.0813,93.4943 102.7492,93.6319 102.4346,93.8058 102.1414,94.0138 101.8733,94.2533 101.8733,94.2533 101.6338,94.5214 101.4258,94.8145 101.2519,95.1292 101.1143,95.4613 101.0148,95.8067 101.0148,95.8067 100.9546,96.1611 100.9546,96.1611 100.9345,96.5200 100.9345,96.5200 99.0605,96.5200 99.0605,85.3550 116.8036,85.3550 116.8232,85.5799 116.8232,85.5799 116.8233,85.5799 116.8817,85.7981 116.9771,86.0027 117.1066,86.1877 117.2663,86.3474 117.4513,86.4769 117.6559,86.5723 117.8741,86.6307 117.8741,86.6307 117.8741,86.6308 118.0426,86.6455 118.0426,86.6455 118.1554,86.6455 118.3239,86.6308 118.3239,86.6307 118.3239,86.6307 118.5421,86.5723 118.7467,86.4769 118.9317,86.3474 118.9940,86.2850 121.1934,86.2850 121.2137,86.4909 121.2137,86.4909 121.2738,86.6890 121.3713,86.8715 121.5026,87.0314 121.5026,87.0314 121.5026,87.0314 121.6625,87.1627 121.6625,87.1627 121.6625,87.1627 121.8450,87.2602 121.9830,87.3021 122.0431,87.3203 122.0431,87.3203 122.2490,87.3406 122.2490,87.3406 122.2490,87.3406 122.4549,87.3203 122.4549,87.3203 122.6530,87.2602 122.8354,87.1627 122.8451,87.1547 123.7385,87.1547 123.7385,87.1548 123.7501,87.2132 123.7501,87.2132 123.7944,87.2795 123.7944,87.2796 123.8608,87.3239 123.9052,87.3327 123.9192,87.3355 123.9192,87.3355 123.9193,87.3355 123.9193,87.3355 125.6587,87.3355 125.6587,87.3355 125.7172,87.3239 125.7836,87.2796 125.8279,87.2132 125.8395,87.1547 125.8395,87.1547 126.2785,87.1547 126.2785,87.1548 126.2901,87.2132 126.2901,87.2132 126.3344,87.2795 126.3344,87.2796 126.4008,87.3239 126.4452,87.3327 126.4592,87.3355 126.4592,87.3355 126.4593,87.3355 126.4593,87.3355 128.1987,87.3355 128.1987,87.3355 128.2572,87.3239 128.3236,87.2796 128.3679,87.2132 128.3795,87.1547 128.3795,86.2850 128.8134,86.2850 128.8337,86.4909 128.8337,86.4909 128.8938,86.6890 128.9913,86.8715 129.1226,87.0314 129.1226,87.0314 129.1226,87.0314 129.2825,87.1627 129.2825,87.1627 129.2825,87.1627 129.4650,87.2602 129.6030,87.3021 129.6631,87.3203 129.6631,87.3203 129.8690,87.3406 129.8690,87.3406 129.8690,87.3406 130.0749,87.3203 130.0749,87.3203 130.2730,87.2602 130.4554,87.1627 130.6154,87.0314 130.7467,86.8714 130.8442,86.6890 130.9043,86.4909 130.9043,86.4909 130.9246,86.2850 131.3534,86.2850 131.3737,86.4909 131.3737,86.4909 131.4338,86.6890 131.5313,86.8715 131.6626,87.0314 131.6626,87.0314 131.6626,87.0314 131.8225,87.1627 131.8225,87.1627 131.8226,87.1627 132.0050,87.2602 132.1430,87.3021 132.2031,87.3203 132.2031,87.3203 132.4090,87.3406 132.4090,87.3406 132.4090,87.3406 132.6149,87.3203 132.6149,87.3203 132.8130,87.2602 132.9955,87.1627 133.1554,87.0314 133.2867,86.8714 133.3842,86.6890 133.4443,86.4909 133.4443,86.4909 133.4646,86.2850 133.4646,86.2850 133.4443,86.0791 133.4443,86.0791 133.4211,86.0027 133.3842,85.8810 133.2867,85.6985 133.1554,85.5386 133.0051,85.4153 132.9955,85.4073 132.8976,85.3550 135.2636,85.3550 135.2832,85.5799 135.2832,85.5799 135.2832,85.5799 135.3417,85.7981 135.4371,86.0027 135.5666,86.1877 135.7263,86.3474 135.9113,86.4769 136.1159,86.5723 136.3341,86.6307 136.3341,86.6307 136.3341,86.6308 136.5026,86.6455 136.5026,86.6455 136.6154,86.6455 136.7839,86.6308 136.7839,86.6307 136.7839,86.6307 137.0021,86.5723 137.2067,86.4769 137.3917,86.3474 137.5514,86.1877 137.6809,86.0027 137.7763,85.7981 137.8347,85.5799 137.8384,85.5386 137.8544,85.3550 137.8544,85.3550 137.8348,85.1301 137.8347,85.1301 137.8347,85.1301 137.7763,84.9119 137.6809,84.7073 137.5514,84.5223 137.3917,84.3626 137.3917,84.3626 137.3917,84.3626 137.2891,84.2908 137.2067,84.2331 137.0021,84.1377 136.7839,84.0793 136.7839,84.0792 136.7839,84.0792 136.6154,84.0645 136.6154,84.0645 136.5026,84.0645 136.5026,84.0645 136.3341,84.0792 136.3341,84.0793 136.1159,84.1377 136.0205,84.1822 135.9113,84.2331 135.7263,84.3626 135.5666,84.5223 135.4371,84.7073 135.3417,84.9119 135.2832,85.1301 135.2636,85.3550 135.2636,85.3550 132.8976,85.3550 132.8130,85.3098 132.6149,85.2497 132.6149,85.2497 132.4090,85.2294 132.4090,85.2294 132.2031,85.2497 132.2031,85.2497 132.0050,85.3098 131.8225,85.4073 131.6626,85.5386 131.6626,85.5386 131.5313,85.6985 131.4338,85.8810 131.3737,86.0791 131.3737,86.0791 131.3534,86.2850 131.3534,86.2850 130.9246,86.2850 130.9246,86.2850 130.9043,86.0791 130.9043,86.0791 130.8811,86.0027 130.8442,85.8810 130.7467,85.6985 130.6154,85.5386 130.4651,85.4153 130.4555,85.4073 130.2730,85.3098 130.0749,85.2497 130.0749,85.2497 129.8690,85.2294 129.8690,85.2294 129.6631,85.2497 129.6631,85.2497 129.4650,85.3098 129.2825,85.4073 129.1226,85.5386 129.1226,85.5386 128.9913,85.6985 128.8938,85.8810 128.8337,86.0791 128.8337,86.0791 128.8134,86.2850 128.8134,86.2850 128.3795,86.2850 128.3795,85.4153 128.3779,85.4073 128.3767,85.4012 128.3679,85.3568 128.3236,85.2904 128.3235,85.2904 128.2572,85.2461 128.2572,85.2461 128.2572,85.2461 128.2572,85.2461 128.1988,85.2345 128.1987,85.2345 126.4593,85.2345 126.4593,85.2345 126.4592,85.2345 126.4008,85.2461 126.4008,85.2461 126.3345,85.2904 126.3344,85.2905 126.2901,85.3568 126.2901,85.3568 126.2785,85.4152 126.2785,85.4153 126.2785,87.1547 125.8395,87.1547 125.8395,85.4153 125.8379,85.4073 125.8367,85.4012 125.8279,85.3568 125.7836,85.2904 125.7835,85.2904 125.7172,85.2461 125.7172,85.2461 125.7172,85.2461 125.7172,85.2461 125.6588,85.2345 125.6587,85.2345 123.9193,85.2345 123.9193,85.2345 123.9192,85.2345 123.8608,85.2461 123.8608,85.2461 123.7945,85.2904 123.7944,85.2905 123.7501,85.3568 123.7501,85.3568 123.7385,85.4152 123.7385,85.4153 123.7385,87.1547 122.8451,87.1547 122.9954,87.0314 123.1267,86.8714 123.2242,86.6890 123.2843,86.4909 123.2843,86.4909 123.3046,86.2850 123.3046,86.2850 123.2843,86.0791 123.2843,86.0791 123.2611,86.0027 123.2242,85.8810 123.1267,85.6985 122.9954,85.5386 122.8451,85.4153 122.8355,85.4073 122.6530,85.3098 122.4549,85.2497 122.4549,85.2497 122.2490,85.2294 122.2490,85.2294 122.0431,85.2497 122.0431,85.2497 121.8450,85.3098 121.6625,85.4073 121.5026,85.5386 121.5026,85.5386 121.3713,85.6985 121.2738,85.8810 121.2137,86.0791 121.2137,86.0791 121.1934,86.2850 121.1934,86.2850 118.9940,86.2850 119.0914,86.1877 119.2209,86.0027 119.3163,85.7981 119.3747,85.5799 119.3784,85.5386 119.3944,85.3550 119.3944,85.3550 119.3748,85.1301 119.3747,85.1301 119.3747,85.1301 119.3163,84.9119 119.2209,84.7073 119.0914,84.5223 118.9317,84.3626 118.9317,84.3626 118.9317,84.3626 118.8291,84.2908 118.7467,84.2331 118.5421,84.1377 118.3239,84.0793 118.3239,84.0792 118.3239,84.0792 118.1554,84.0645 118.1554,84.0645 118.0426,84.0645 118.0426,84.0645 117.8741,84.0792 117.8741,84.0793 117.6559,84.1377 117.5605,84.1822 117.4513,84.2331 117.2663,84.3626 117.1066,84.5223 116.9771,84.7073 116.8817,84.9119 116.8232,85.1301 116.8036,85.3550 116.8036,85.3550 99.0605,85.3550 99.0605,55.8800 100.9345,55.8800 100.9546,56.2389 100.9546,56.2389 101.0148,56.5933 101.0148,56.5933 101.1143,56.9387 101.2519,57.2708 101.4258,57.5854 101.4258,57.5855 101.6338,57.8786 101.8733,58.1467 102.1414,58.3862 102.4345,58.5942 102.4346,58.5942 102.7492,58.7681 102.7492,58.7681 103.0813,58.9057 103.4267,59.0052 103.4267,59.0052 103.4267,59.0052 103.7811,59.0654 103.7811,59.0654 103.7811,59.0654 104.1400,59.0855 104.1400,59.0855 104.1400,59.0855 104.4989,59.0654 104.4989,59.0654 104.4989,59.0654 104.8533,59.0052 105.1987,58.9057 105.5308,58.7681 105.8455,58.5942 106.1386,58.3862 106.4067,58.1467 106.6462,57.8786 106.8542,57.5855 107.0281,57.2708 107.1657,56.9387 107.2652,56.5933 107.3254,56.2389 107.3455,55.8800 144.1145,55.8800 144.1346,56.2389 144.1346,56.2389 144.1948,56.5933 144.1948,56.5933 144.2943,56.9387 144.4319,57.2708 144.6058,57.5854 144.6058,57.5855 144.8138,57.8786 145.0533,58.1467 145.3214,58.3862 145.6145,58.5942 145.6145,58.5942 145.9292,58.7681 145.9292,58.7681 146.2613,58.9057 146.6067,59.0052 146.6067,59.0052 146.6067,59.0052 146.9611,59.0654 146.9611,59.0654 146.9611,59.0654 147.3200,59.0855 147.3200,59.0855 147.3200,59.0855 147.6789,59.0654 147.6789,59.0654 147.6789,59.0654 148.0333,59.0052 148.3787,58.9057 148.7108,58.7681 149.0255,58.5942 149.3186,58.3862 149.5867,58.1467 149.8262,57.8786 150.0342,57.5855 150.2081,57.2708 150.3457,56.9387 150.4452,56.5933 150.5054,56.2389 150.5255,55.8800 150.5054,55.5211 150.4452,55.1667 150.3457,54.8213 150.2081,54.4892 150.2081,54.4892 150.0342,54.1745 149.8262,53.8814 149.8262,53.8814 149.8262,53.8814 149.5867,53.6133 149.3186,53.3738 149.3186,53.3738 149.3186,53.3738 149.0254,53.1658 148.7108,52.9919 148.7108,52.9919 148.3787,52.8543 148.0333,52.7548 148.0333,52.7548 147.6789,52.6946 147.6789,52.6946 147.3200,52.6745 147.3200,52.6745 146.9611,52.6946 146.9611,52.6946 146.6067,52.7548 146.6067,52.7548 146.2613,52.8543 145.9292,52.9919 145.6145,53.1658 145.3214,53.3738 145.0533,53.6133 145.0533,53.6133 144.8138,53.8814 144.6058,54.1745 144.4319,54.4892 144.2943,54.8213 144.1948,55.1667 144.1948,55.1667 144.1346,55.5211 144.1346,55.5211 144.1145,55.8800 144.1145,55.8800 107.3455,55.8800 107.3455,55.8800 107.3254,55.5211 107.2652,55.1667 107.1657,54.8213 107.0281,54.4892 107.0281,54.4892 106.8542,54.1745 106.6462,53.8814 106.6462,53.8814 106.6462,53.8814 106.4067,53.6133 106.1386,53.3738 106.1386,53.3738 106.1386,53.3738 105.8454,53.1658 105.5308,52.9919 105.5308,52.9919 105.1987,52.8543 104.8533,52.7548 104.8533,52.7548 104.4989,52.6946 104.4989,52.6946 104.1400,52.6745 104.1400,52.6745 103.7811,52.6946 103.7811,52.6946 103.4267,52.7548 103.4267,52.7548 103.0813,52.8543 102.7492,52.9919 102.4346,53.1658 102.1414,53.3738 101.8733,53.6133 101.8733,53.6133 101.6338,53.8814 101.4258,54.1745 101.2519,54.4892 101.1143,54.8213 101.0148,55.1667 101.0148,55.1667 100.9546,55.5211 100.9546,55.5211 100.9345,55.8800 100.9345,55.8800 99.0605,55.8800 99.0605,50.8995 99.0794,50.8413 99.1289,50.8053 99.1595,50.8005 152.3005,50.8005 Z"/> 
</g>
</g>
</g> 
</g><g id="substrate-silk" style="fill:#d5dce4; stroke:#d5dce4;" mask="url(#pads-mask-silkscreen)"><g style="fill-opacity: 0.0;stroke-width: 0.1500;stroke-opacity: 1;stroke-linecap: round;stroke-linejoin: round">
<text x="104.1400" y="92.8200" textLength="4.5357" font-size="1.3333" lengthAdjust="spacingAndGlyphs" text-anchor="middle" opacity="0">REF**</text>
<g class="stroked-text"><desc>REF**</desc>
<path d="M102.8067 92.7748 L102.4733 92.2986 "/>
<path d="M102.2352 92.7748 L102.2352 91.7748 "/>
<path d="M102.2352 91.7748 L102.6162 91.7748 "/>
<path d="M102.6162 91.7748 L102.7114 91.8224 "/>
<path d="M102.7114 91.8224 L102.7590 91.8701 "/>
<path d="M102.7590 91.8701 L102.8067 91.9653 "/>
<path d="M102.8067 91.9653 L102.8067 92.1082 "/>
<path d="M102.8067 92.1082 L102.7590 92.2034 "/>
<path d="M102.7590 92.2034 L102.7114 92.2510 "/>
<path d="M102.7114 92.2510 L102.6162 92.2986 "/>
<path d="M102.6162 92.2986 L102.2352 92.2986 "/>
<path d="M103.2352 92.2510 L103.5686 92.2510 "/>
<path d="M103.7114 92.7748 L103.2352 92.7748 "/>
<path d="M103.2352 92.7748 L103.2352 91.7748 "/>
<path d="M103.2352 91.7748 L103.7114 91.7748 "/>
<path d="M104.4733 92.2510 L104.1400 92.2510 "/>
<path d="M104.1400 92.7748 L104.1400 91.7748 "/>
<path d="M104.1400 91.7748 L104.6162 91.7748 "/>
<path d="M105.1400 91.7748 L105.1400 92.0129 "/>
<path d="M104.9019 91.9177 L105.1400 92.0129 "/>
<path d="M105.1400 92.0129 L105.3781 91.9177 "/>
<path d="M104.9971 92.2034 L105.1400 92.0129 "/>
<path d="M105.1400 92.0129 L105.2829 92.2034 "/>
<path d="M105.9019 91.7748 L105.9019 92.0129 "/>
<path d="M105.6638 91.9177 L105.9019 92.0129 "/>
<path d="M105.9019 92.0129 L106.1400 91.9177 "/>
<path d="M105.7590 92.2034 L105.9019 92.0129 "/>
<path d="M105.9019 92.0129 L106.0448 92.2034 "/>
</g><text x="127.9990" y="72.0550" textLength="3.1548" font-size="1.3333" lengthAdjust="spacingAndGlyphs" text-anchor="middle" opacity="0">PS1</text>
<g class="stroked-text"><desc>PS1</desc>
<path d="M126.7847 72.0098 L126.7847 71.0098 "/>
<path d="M126.7847 71.0098 L127.1657 71.0098 "/>
<path d="M127.1657 71.0098 L127.2609 71.0574 "/>
<path d="M127.2609 71.0574 L127.3085 71.1051 "/>
<path d="M127.3085 71.1051 L127.3561 71.2003 "/>
<path d="M127.3561 71.2003 L127.3561 71.3432 "/>
<path d="M127.3561 71.3432 L127.3085 71.4384 "/>
<path d="M127.3085 71.4384 L127.2609 71.4860 "/>
<path d="M127.2609 71.4860 L127.1657 71.5336 "/>
<path d="M127.1657 71.5336 L126.7847 71.5336 "/>
<path d="M127.7371 71.9622 L127.8800 72.0098 "/>
<path d="M127.8800 72.0098 L128.1180 72.0098 "/>
<path d="M128.1180 72.0098 L128.2133 71.9622 "/>
<path d="M128.2133 71.9622 L128.2609 71.9146 "/>
<path d="M128.2609 71.9146 L128.3085 71.8193 "/>
<path d="M128.3085 71.8193 L128.3085 71.7241 "/>
<path d="M128.3085 71.7241 L128.2609 71.6289 "/>
<path d="M128.2609 71.6289 L128.2133 71.5812 "/>
<path d="M128.2133 71.5812 L128.1180 71.5336 "/>
<path d="M128.1180 71.5336 L127.9276 71.4860 "/>
<path d="M127.9276 71.4860 L127.8323 71.4384 "/>
<path d="M127.8323 71.4384 L127.7847 71.3908 "/>
<path d="M127.7847 71.3908 L127.7371 71.2955 "/>
<path d="M127.7371 71.2955 L127.7371 71.2003 "/>
<path d="M127.7371 71.2003 L127.7847 71.1051 "/>
<path d="M127.7847 71.1051 L127.8323 71.0574 "/>
<path d="M127.8323 71.0574 L127.9276 71.0098 "/>
<path d="M127.9276 71.0098 L128.1657 71.0098 "/>
<path d="M128.1657 71.0098 L128.3085 71.0574 "/>
<path d="M129.2609 72.0098 L128.6895 72.0098 "/>
<path d="M128.9752 72.0098 L128.9752 71.0098 "/>
<path d="M128.9752 71.0098 L128.8800 71.1527 "/>
<path d="M128.8800 71.1527 L128.7847 71.2479 "/>
<path d="M128.7847 71.2479 L128.6895 71.2955 "/>
</g><text x="147.3200" y="92.8200" textLength="4.5357" font-size="1.3333" lengthAdjust="spacingAndGlyphs" text-anchor="middle" opacity="0">REF**</text>
<g class="stroked-text"><desc>REF**</desc>
<path d="M145.9867 92.7748 L145.6533 92.2986 "/>
<path d="M145.4152 92.7748 L145.4152 91.7748 "/>
<path d="M145.4152 91.7748 L145.7962 91.7748 "/>
<path d="M145.7962 91.7748 L145.8914 91.8224 "/>
<path d="M145.8914 91.8224 L145.9390 91.8701 "/>
<path d="M145.9390 91.8701 L145.9867 91.9653 "/>
<path d="M145.9867 91.9653 L145.9867 92.1082 "/>
<path d="M145.9867 92.1082 L145.9390 92.2034 "/>
<path d="M145.9390 92.2034 L145.8914 92.2510 "/>
<path d="M145.8914 92.2510 L145.7962 92.2986 "/>
<path d="M145.7962 92.2986 L145.4152 92.2986 "/>
<path d="M146.4152 92.2510 L146.7486 92.2510 "/>
<path d="M146.8914 92.7748 L146.4152 92.7748 "/>
<path d="M146.4152 92.7748 L146.4152 91.7748 "/>
<path d="M146.4152 91.7748 L146.8914 91.7748 "/>
<path d="M147.6533 92.2510 L147.3200 92.2510 "/>
<path d="M147.3200 92.7748 L147.3200 91.7748 "/>
<path d="M147.3200 91.7748 L147.7962 91.7748 "/>
<path d="M148.3200 91.7748 L148.3200 92.0129 "/>
<path d="M148.0819 91.9177 L148.3200 92.0129 "/>
<path d="M148.3200 92.0129 L148.5581 91.9177 "/>
<path d="M148.1771 92.2034 L148.3200 92.0129 "/>
<path d="M148.3200 92.0129 L148.4629 92.2034 "/>
<path d="M149.0819 91.7748 L149.0819 92.0129 "/>
<path d="M148.8438 91.9177 L149.0819 92.0129 "/>
<path d="M149.0819 92.0129 L149.3200 91.9177 "/>
<path d="M148.9390 92.2034 L149.0819 92.0129 "/>
<path d="M149.0819 92.0129 L149.2248 92.2034 "/>
</g><text x="104.1400" y="52.1800" textLength="4.5357" font-size="1.3333" lengthAdjust="spacingAndGlyphs" text-anchor="middle" opacity="0">REF**</text>
<g class="stroked-text"><desc>REF**</desc>
<path d="M102.8067 52.1348 L102.4733 51.6586 "/>
<path d="M102.2352 52.1348 L102.2352 51.1348 "/>
<path d="M102.2352 51.1348 L102.6162 51.1348 "/>
<path d="M102.6162 51.1348 L102.7114 51.1824 "/>
<path d="M102.7114 51.1824 L102.7590 51.2301 "/>
<path d="M102.7590 51.2301 L102.8067 51.3253 "/>
<path d="M102.8067 51.3253 L102.8067 51.4682 "/>
<path d="M102.8067 51.4682 L102.7590 51.5634 "/>
<path d="M102.7590 51.5634 L102.7114 51.6110 "/>
<path d="M102.7114 51.6110 L102.6162 51.6586 "/>
<path d="M102.6162 51.6586 L102.2352 51.6586 "/>
<path d="M103.2352 51.6110 L103.5686 51.6110 "/>
<path d="M103.7114 52.1348 L103.2352 52.1348 "/>
<path d="M103.2352 52.1348 L103.2352 51.1348 "/>
<path d="M103.2352 51.1348 L103.7114 51.1348 "/>
<path d="M104.4733 51.6110 L104.1400 51.6110 "/>
<path d="M104.1400 52.1348 L104.1400 51.1348 "/>
<path d="M104.1400 51.1348 L104.6162 51.1348 "/>
<path d="M105.1400 51.1348 L105.1400 51.3729 "/>
<path d="M104.9019 51.2777 L105.1400 51.3729 "/>
<path d="M105.1400 51.3729 L105.3781 51.2777 "/>
<path d="M104.9971 51.5634 L105.1400 51.3729 "/>
<path d="M105.1400 51.3729 L105.2829 51.5634 "/>
<path d="M105.9019 51.1348 L105.9019 51.3729 "/>
<path d="M105.6638 51.2777 L105.9019 51.3729 "/>
<path d="M105.9019 51.3729 L106.1400 51.2777 "/>
<path d="M105.7590 51.5634 L105.9019 51.3729 "/>
<path d="M105.9019 51.3729 L106.0448 51.5634 "/>
</g><text x="147.3200" y="52.1800" textLength="4.5357" font-size="1.3333" lengthAdjust="spacingAndGlyphs" text-anchor="middle" opacity="0">REF**</text>
<g class="stroked-text"><desc>REF**</desc>
<path d="M145.9867 52.1348 L145.6533 51.6586 "/>
<path d="M145.4152 52.1348 L145.4152 51.1348 "/>
<path d="M145.4152 51.1348 L145.7962 51.1348 "/>
<path d="M145.7962 51.1348 L145.8914 51.1824 "/>
<path d="M145.8914 51.1824 L145.9390 51.2301 "/>
<path d="M145.9390 51.2301 L145.9867 51.3253 "/>
<path d="M145.9867 51.3253 L145.9867 51.4682 "/>
<path d="M145.9867 51.4682 L145.9390 51.5634 "/>
<path d="M145.9390 51.5634 L145.8914 51.6110 "/>
<path d="M145.8914 51.6110 L145.7962 51.6586 "/>
<path d="M145.7962 51.6586 L145.4152 51.6586 "/>
<path d="M146.4152 51.6110 L146.7486 51.6110 "/>
<path d="M146.8914 52.1348 L146.4152 52.1348 "/>
<path d="M146.4152 52.1348 L146.4152 51.1348 "/>
<path d="M146.4152 51.1348 L146.8914 51.1348 "/>
<path d="M147.6533 51.6110 L147.3200 51.6110 "/>
<path d="M147.3200 52.1348 L147.3200 51.1348 "/>
<path d="M147.3200 51.1348 L147.7962 51.1348 "/>
<path d="M148.3200 51.1348 L148.3200 51.3729 "/>
<path d="M148.0819 51.2777 L148.3200 51.3729 "/>
<path d="M148.3200 51.3729 L148.5581 51.2777 "/>
<path d="M148.1771 51.5634 L148.3200 51.3729 "/>
<path d="M148.3200 51.3729 L148.4629 51.5634 "/>
<path d="M149.0819 51.1348 L149.0819 51.3729 "/>
<path d="M148.8438 51.2777 L149.0819 51.3729 "/>
<path d="M149.0819 51.3729 L149.3200 51.2777 "/>
<path d="M148.9390 51.5634 L149.0819 51.3729 "/>
<path d="M149.0819 51.3729 L149.2248 51.5634 "/>
</g></g>
<g style="fill-opacity: 0.0;stroke-width: 0.1200;stroke-opacity: 1;stroke-linecap: round;stroke-linejoin: round">
<path d="M115.8990 64.6550 L115.8990 87.5550 "/>
<path d="M115.8990 87.5550 L138.7990 87.5550 "/>
<path d="M138.7990 64.6550 L115.8990 64.6550 "/>
<path d="M138.7990 87.5550 L138.7990 64.6550 "/>
</g> 
</g><g id="substrate-outline" style="fill:#000000; stroke:#000000; stroke-width: 0.15"><g style="fill-opacity: 0.0;stroke-opacity: 1;stroke-linecap: round;stroke-linejoin: round">
<path style="fill-opacity: 0.0;stroke-opacity: 1;stroke-linecap: round;stroke-linejoin: round" d="M 99.0600,50.8000 152.4000,50.8000 152.4000,101.6000 99.0600,101.6000 Z"/> 
</g> 
<path d="M -1.6 0.0 A 1.6 1.6 0 1 1 1.6 0.0 L 1.6 -0.0 A 1.6 1.6 0 1 1 -1.6 -0.0 Z" transform="translate(104.14 96.52) rotate(-0.0)"/><path d="M -1.09 0.0 A 1.09 1.09 0 1 1 1.09 0.0 L 1.09 -0.0 A 1.09 1.09 0 1 1 -1.09 -0.0 Z" transform="translate(118.099 85.355) rotate(-90.0)"/><path d="M -1.09 0.0 A 1.09 1.09 0 1 1 1.09 0.0 L 1.09 -0.0 A 1.09 1.09 0 1 1 -1.09 -0.0 Z" transform="translate(136.559 85.355) rotate(-90.0)"/><path d="M -0.5 0.0 A 0.5 0.5 0 1 1 0.5 0.0 L 0.5 -0.0 A 0.5 0.5 0 1 1 -0.5 -0.0 Z" transform="translate(122.249 86.285) rotate(-0.0)"/><path d="M -0.5 0.0 A 0.5 0.5 0 1 1 0.5 0.0 L 0.5 -0.0 A 0.5 0.5 0 1 1 -0.5 -0.0 Z" transform="translate(124.789 86.285) rotate(-0.0)"/><path d="M -0.5 0.0 A 0.5 0.5 0 1 1 0.5 0.0 L 0.5 -0.0 A 0.5 0.5 0 1 1 -0.5 -0.0 Z" transform="translate(127.329 86.285) rotate(-0.0)"/><path d="M -0.5 0.0 A 0.5 0.5 0 1 1 0.5 0.0 L 0.5 -0.0 A 0.5 0.5 0 1 1 -0.5 -0.0 Z" transform="translate(129.869 86.285) rotate(-0.0)"/><path d="M -0.5 0.0 A 0.5 0.5 0 1 1 0.5 0.0 L 0.5 -0.0 A 0.5 0.5 0 1 1 -0.5 -0.0 Z" transform="translate(132.409 86.285) rotate(-90.0)"/><path d="M -1.6 0.0 A 1.6 1.6 0 1 1 1.6 0.0 L 1.6 -0.0 A 1.6 1.6 0 1 1 -1.6 -0.0 Z" transform="translate(147.32 96.52) rotate(-0.0)"/><path d="M -1.6 0.0 A 1.6 1.6 0 1 1 1.6 0.0 L 1.6 -0.0 A 1.6 1.6 0 1 1 -1.6 -0.0 Z" transform="translate(104.14 55.88) rotate(-0.0)"/><path d="M -1.6 0.0 A 1.6 1.6 0 1 1 1.6 0.0 L 1.6 -0.0 A 1.6 1.6 0 1 1 -1.6 -0.0 Z" transform="translate(147.32 55.88) rotate(-0.0)"/></g></g></g></svg>