<?xml version="1.0" standalone="no"?>
 <!DOCTYPE svg PUBLIC "-//W3C//DTD SVG 1.1//EN" 
 "http://www.w3.org/Graphics/SVG/1.1/DTD/svg11.dtd"> 
<svg
  xmlns:svg="http://www.w3.org/2000/svg"
  xmlns="http://www.w3.org/2000/svg"
  xmlns:xlink="http://www.w3.org/1999/xlink"
  version="1.1"
  width="297.0022mm" height="210.0072mm" viewBox="0.0000 0.0000 297.0022 210.0072">
<title>SVG Image created as template_project_kicad-B_Cu.svg date 2023/11/26 00:20:57 </title>
  <desc>Image generated by PCBNEW </desc>
<g style="fill:#000000; fill-opacity:1.0000;stroke:#000000; stroke-opacity:1.0000;
stroke-linecap:round; stroke-linejoin:round;"
 transform="translate(0 0) scale(1 1)">
</g>
<g style="fill:#000000; fill-opacity:0.0; 
stroke:#000000; stroke-width:0.0000; stroke-opacity:1; 
stroke-linecap:round; stroke-linejoin:round;">
<g >
</g>
<g style="fill:#000000; fill-opacity:1.0000; 
stroke:#000000; stroke-width:0.0000; stroke-opacity:1; 
stroke-linecap:round; stroke-linejoin:round;">
<circle cx="192.8622" cy="96.5200" r="3.0000" /> 
</g>
<g style="fill:#000000; fill-opacity:1.0000; 
stroke:#000000; stroke-width:0.0212; stroke-opacity:1; 
stroke-linecap:round; stroke-linejoin:round;">
</g>
<g >
</g>
<g style="fill:#000000; fill-opacity:1.0000; 
stroke:#000000; stroke-width:0.0212; stroke-opacity:1; 
stroke-linecap:round; stroke-linejoin:round;">
</g>
<g style="fill:#000000; fill-opacity:1.0000; 
stroke:#000000; stroke-width:0.0000; stroke-opacity:1; 
stroke-linecap:round; stroke-linejoin:round;">
<circle cx="174.7532" cy="86.2850" r="0.8500" /> 
</g>
<g style="fill:#000000; fill-opacity:1.0000; 
stroke:#000000; stroke-width:0.0212; stroke-opacity:1; 
stroke-linecap:round; stroke-linejoin:round;">
</g>
<g style="fill:#000000; fill-opacity:1.0000; 
stroke:#000000; stroke-width:0.0000; stroke-opacity:1; 
stroke-linecap:round; stroke-linejoin:round;">
<path style="fill:#000000; fill-opacity:1.0000; 
stroke:#000000; stroke-width:0.0000; stroke-opacity:1; 
stroke-linecap:round; stroke-linejoin:round;fill-rule:evenodd;"
d="M 173.0632,87.1350
173.0632,85.4350
171.3632,85.4350
171.3632,87.1350
Z" /> 
<path style="fill:#000000; fill-opacity:1.0000; 
stroke:#000000; stroke-width:0.0000; stroke-opacity:1; 
stroke-linecap:round; stroke-linejoin:round;fill-rule:evenodd;"
d="M 170.5232,87.1350
170.5232,85.4350
168.8232,85.4350
168.8232,87.1350
Z" /> 
<circle cx="167.1332" cy="86.2850" r="0.8500" /> 
</g>
<g style="fill:#000000; fill-opacity:1.0000; 
stroke:#000000; stroke-width:0.0212; stroke-opacity:1; 
stroke-linecap:round; stroke-linejoin:round;">
</g>
<g style="fill:#000000; fill-opacity:1.0000; 
stroke:#000000; stroke-width:0.0000; stroke-opacity:1; 
stroke-linecap:round; stroke-linejoin:round;">
<circle cx="164.5932" cy="86.2850" r="0.8500" /> 
</g>
<g style="fill:#000000; fill-opacity:1.0000; 
stroke:#000000; stroke-width:0.0212; stroke-opacity:1; 
stroke-linecap:round; stroke-linejoin:round;">
</g>
<g >
</g>
<g style="fill:#000000; fill-opacity:1.0000; 
stroke:#000000; stroke-width:0.0212; stroke-opacity:1; 
stroke-linecap:round; stroke-linejoin:round;">
</g>
<g style="fill:#000000; fill-opacity:1.0000; 
stroke:#000000; stroke-width:0.0000; stroke-opacity:1; 
stroke-linecap:round; stroke-linejoin:round;">
<circle cx="149.6822" cy="96.5200" r="3.0000" /> 
</g>
<g style="fill:#000000; fill-opacity:1.0000; 
stroke:#000000; stroke-width:0.0212; stroke-opacity:1; 
stroke-linecap:round; stroke-linejoin:round;">
</g>
<g >
</g>
<g style="fill:#000000; fill-opacity:1.0000; 
stroke:#000000; stroke-width:0.0212; stroke-opacity:1; 
stroke-linecap:round; stroke-linejoin:round;">
</g>
<g style="fill:#000000; fill-opacity:1.0000; 
stroke:#000000; stroke-width:0.0000; stroke-opacity:1; 
stroke-linecap:round; stroke-linejoin:round;">
<circle cx="192.8622" cy="55.8800" r="3.0000" /> 
</g>
<g style="fill:#000000; fill-opacity:1.0000; 
stroke:#000000; stroke-width:0.0212; stroke-opacity:1; 
stroke-linecap:round; stroke-linejoin:round;">
</g>
<g >
</g>
<g style="fill:#000000; fill-opacity:1.0000; 
stroke:#000000; stroke-width:0.0212; stroke-opacity:1; 
stroke-linecap:round; stroke-linejoin:round;">
</g>
<g style="fill:#000000; fill-opacity:1.0000; 
stroke:#000000; stroke-width:0.0000; stroke-opacity:1; 
stroke-linecap:round; stroke-linejoin:round;">
<circle cx="149.6822" cy="55.8800" r="3.0000" /> 
</g>
<g style="fill:#000000; fill-opacity:1.0000; 
stroke:#000000; stroke-width:0.0212; stroke-opacity:1; 
stroke-linecap:round; stroke-linejoin:round;">
</g>
<g >
</g>
<g >
</g>
<g >
</g>
<g style="fill:#000000; fill-opacity:1.0000; 
stroke:#000000; stroke-width:0.0212; stroke-opacity:1; 
stroke-linecap:round; stroke-linejoin:round;">
<g >
</g>
<g style="fill:#000000; fill-opacity:1.0000; 
stroke:#000000; stroke-width:0.0000; stroke-opacity:1; 
stroke-linecap:round; stroke-linejoin:round;">
<path style="fill:#000000; fill-opacity:1.0000; 
stroke:#000000; stroke-width:0.0000; stroke-opacity:1; 
stroke-linecap:round; stroke-linejoin:round;fill-rule:evenodd;"
d="M 144.6435,50.8194
144.6075,50.8689
144.6027,50.8995
144.6027,101.5005
144.6216,101.5587
144.6711,101.5947
144.7017,101.5995
197.8427,101.5995
197.9009,101.5806
197.9369,101.5311
197.9417,101.5005
197.9417,96.5200
196.0677,96.5200
196.0476,96.8789
196.0476,96.8789
195.9874,97.2333
195.9874,97.2333
195.8879,97.5787
195.7503,97.9108
195.5764,98.2254
195.5764,98.2255
195.3684,98.5186
195.1289,98.7867
194.8608,99.0262
194.5677,99.2342
194.5676,99.2342
194.2530,99.4081
194.2530,99.4081
193.9209,99.5457
193.5755,99.6452
193.5755,99.6452
193.5755,99.6452
193.2211,99.7054
193.2211,99.7054
193.2211,99.7054
192.8622,99.7255
192.8622,99.7255
192.8622,99.7255
192.5033,99.7054
192.5033,99.7054
192.5033,99.7054
192.1489,99.6452
191.8035,99.5457
191.4714,99.4081
191.1567,99.2342
190.8636,99.0262
190.5955,98.7867
190.3560,98.5186
190.1480,98.2255
189.9741,97.9108
189.8365,97.5787
189.7370,97.2333
189.6768,96.8789
189.6567,96.5200
152.8877,96.5200
152.8676,96.8789
152.8676,96.8789
152.8074,97.2333
152.8074,97.2333
152.7079,97.5787
152.5703,97.9108
152.3964,98.2254
152.3964,98.2255
152.1884,98.5186
151.9489,98.7867
151.6808,99.0262
151.3877,99.2342
151.3876,99.2342
151.0730,99.4081
151.0730,99.4081
150.7409,99.5457
150.3955,99.6452
150.3955,99.6452
150.3955,99.6452
150.0411,99.7054
150.0411,99.7054
150.0411,99.7054
149.6822,99.7255
149.6822,99.7255
149.6822,99.7255
149.3233,99.7054
149.3233,99.7054
149.3233,99.7054
148.9689,99.6452
148.6235,99.5457
148.2914,99.4081
147.9767,99.2342
147.6836,99.0262
147.4155,98.7867
147.1760,98.5186
146.9680,98.2255
146.7941,97.9108
146.6565,97.5787
146.5570,97.2333
146.4968,96.8789
146.4767,96.5200
146.4968,96.1611
146.5570,95.8067
146.6565,95.4613
146.7941,95.1292
146.7941,95.1292
146.9680,94.8145
147.1760,94.5214
147.1760,94.5214
147.1760,94.5214
147.4155,94.2533
147.6836,94.0138
147.6836,94.0138
147.6836,94.0138
147.9768,93.8058
148.2914,93.6319
148.2914,93.6319
148.6235,93.4943
148.9689,93.3948
148.9689,93.3948
149.3233,93.3346
149.3233,93.3346
149.6822,93.3145
149.6822,93.3145
150.0411,93.3346
150.0411,93.3346
150.3955,93.3948
150.3955,93.3948
150.7409,93.4943
151.0730,93.6319
151.3876,93.8058
151.6808,94.0138
151.9489,94.2533
151.9489,94.2533
152.1884,94.5214
152.3964,94.8145
152.5703,95.1292
152.7079,95.4613
152.8074,95.8067
152.8074,95.8067
152.8676,96.1611
152.8676,96.1611
152.8877,96.5200
152.8877,96.5200
189.6567,96.5200
189.6567,96.5200
189.6768,96.1611
189.7370,95.8067
189.8365,95.4613
189.9741,95.1292
189.9741,95.1292
190.1480,94.8145
190.3560,94.5214
190.3560,94.5214
190.3560,94.5214
190.5955,94.2533
190.8636,94.0138
190.8636,94.0138
190.8636,94.0138
191.1568,93.8058
191.4714,93.6319
191.4714,93.6319
191.8035,93.4943
192.1489,93.3948
192.1489,93.3948
192.5033,93.3346
192.5033,93.3346
192.8622,93.3145
192.8622,93.3145
193.2211,93.3346
193.2211,93.3346
193.5755,93.3948
193.5755,93.3948
193.9209,93.4943
194.2530,93.6319
194.5676,93.8058
194.8608,94.0138
195.1289,94.2533
195.1289,94.2533
195.3684,94.5214
195.5764,94.8145
195.7503,95.1292
195.8879,95.4613
195.9874,95.8067
195.9874,95.8067
196.0476,96.1611
196.0476,96.1611
196.0677,96.5200
196.0677,96.5200
197.9417,96.5200
197.9417,85.3550
180.1986,85.3550
180.1790,85.5799
180.1790,85.5799
180.1789,85.5799
180.1205,85.7981
180.0251,86.0027
179.8956,86.1877
179.7359,86.3474
179.5509,86.4769
179.3463,86.5723
179.1281,86.6307
179.1281,86.6307
179.1281,86.6308
178.9596,86.6455
178.9596,86.6455
178.8468,86.6455
178.6783,86.6308
178.6783,86.6307
178.6783,86.6307
178.4601,86.5723
178.2555,86.4769
178.0705,86.3474
178.0082,86.2850
175.8088,86.2850
175.7885,86.4909
175.7885,86.4909
175.7284,86.6890
175.6309,86.8715
175.4996,87.0314
175.4996,87.0314
175.4996,87.0314
175.3397,87.1627
175.3397,87.1627
175.3397,87.1627
175.1572,87.2602
175.0192,87.3021
174.9591,87.3203
174.9591,87.3203
174.7532,87.3406
174.7532,87.3406
174.7532,87.3406
174.5473,87.3203
174.5473,87.3203
174.3492,87.2602
174.1667,87.1627
174.1571,87.1547
173.2637,87.1547
173.2637,87.1548
173.2521,87.2132
173.2521,87.2132
173.2078,87.2795
173.2078,87.2796
173.1414,87.3239
173.0970,87.3327
173.0830,87.3355
173.0830,87.3355
173.0829,87.3355
173.0829,87.3355
171.3435,87.3355
171.3435,87.3355
171.2850,87.3239
171.2186,87.2796
171.1743,87.2132
171.1627,87.1547
171.1627,87.1547
170.7237,87.1547
170.7237,87.1548
170.7121,87.2132
170.7121,87.2132
170.6678,87.2795
170.6678,87.2796
170.6014,87.3239
170.5570,87.3327
170.5430,87.3355
170.5430,87.3355
170.5429,87.3355
170.5429,87.3355
168.8035,87.3355
168.8035,87.3355
168.7450,87.3239
168.6786,87.2796
168.6343,87.2132
168.6227,87.1547
168.6227,86.2850
168.1888,86.2850
168.1685,86.4909
168.1685,86.4909
168.1084,86.6890
168.0109,86.8715
167.8796,87.0314
167.8796,87.0314
167.8796,87.0314
167.7197,87.1627
167.7197,87.1627
167.7197,87.1627
167.5372,87.2602
167.3992,87.3021
167.3391,87.3203
167.3391,87.3203
167.1332,87.3406
167.1332,87.3406
167.1332,87.3406
166.9273,87.3203
166.9273,87.3203
166.7292,87.2602
166.5468,87.1627
166.3868,87.0314
166.2555,86.8714
166.1580,86.6890
166.0979,86.4909
166.0979,86.4909
166.0776,86.2850
165.6488,86.2850
165.6285,86.4909
165.6285,86.4909
165.5684,86.6890
165.4709,86.8715
165.3396,87.0314
165.3396,87.0314
165.3396,87.0314
165.1797,87.1627
165.1797,87.1627
165.1796,87.1627
164.9972,87.2602
164.8592,87.3021
164.7991,87.3203
164.7991,87.3203
164.5932,87.3406
164.5932,87.3406
164.5932,87.3406
164.3873,87.3203
164.3873,87.3203
164.1892,87.2602
164.0067,87.1627
163.8468,87.0314
163.7155,86.8714
163.6180,86.6890
163.5579,86.4909
163.5579,86.4909
163.5376,86.2850
163.5376,86.2850
163.5579,86.0791
163.5579,86.0791
163.5811,86.0027
163.6180,85.8810
163.7155,85.6985
163.8468,85.5386
163.9971,85.4153
164.0067,85.4073
164.1046,85.3550
161.7386,85.3550
161.7190,85.5799
161.7190,85.5799
161.7190,85.5799
161.6605,85.7981
161.5651,86.0027
161.4356,86.1877
161.2759,86.3474
161.0909,86.4769
160.8863,86.5723
160.6681,86.6307
160.6681,86.6307
160.6681,86.6308
160.4996,86.6455
160.4996,86.6455
160.3868,86.6455
160.2183,86.6308
160.2183,86.6307
160.2183,86.6307
160.0001,86.5723
159.7955,86.4769
159.6105,86.3474
159.4508,86.1877
159.3213,86.0027
159.2259,85.7981
159.1675,85.5799
159.1638,85.5386
159.1478,85.3550
159.1478,85.3550
159.1674,85.1301
159.1675,85.1301
159.1675,85.1301
159.2259,84.9119
159.3213,84.7073
159.4508,84.5223
159.6105,84.3626
159.6105,84.3626
159.6105,84.3626
159.7131,84.2908
159.7955,84.2331
160.0001,84.1377
160.2183,84.0793
160.2183,84.0792
160.2183,84.0792
160.3868,84.0645
160.3868,84.0645
160.4996,84.0645
160.4996,84.0645
160.6681,84.0792
160.6681,84.0793
160.8863,84.1377
160.9817,84.1822
161.0909,84.2331
161.2759,84.3626
161.4356,84.5223
161.5651,84.7073
161.6605,84.9119
161.7190,85.1301
161.7386,85.3550
161.7386,85.3550
164.1046,85.3550
164.1892,85.3098
164.3873,85.2497
164.3873,85.2497
164.5932,85.2294
164.5932,85.2294
164.7991,85.2497
164.7991,85.2497
164.9972,85.3098
165.1797,85.4073
165.3396,85.5386
165.3396,85.5386
165.4709,85.6985
165.5684,85.8810
165.6285,86.0791
165.6285,86.0791
165.6488,86.2850
165.6488,86.2850
166.0776,86.2850
166.0776,86.2850
166.0979,86.0791
166.0979,86.0791
166.1211,86.0027
166.1580,85.8810
166.2555,85.6985
166.3868,85.5386
166.5371,85.4153
166.5467,85.4073
166.7292,85.3098
166.9273,85.2497
166.9273,85.2497
167.1332,85.2294
167.1332,85.2294
167.3391,85.2497
167.3391,85.2497
167.5372,85.3098
167.7197,85.4073
167.8796,85.5386
167.8796,85.5386
168.0109,85.6985
168.1084,85.8810
168.1685,86.0791
168.1685,86.0791
168.1888,86.2850
168.1888,86.2850
168.6227,86.2850
168.6227,85.4153
168.6243,85.4073
168.6255,85.4012
168.6343,85.3568
168.6786,85.2904
168.6787,85.2904
168.7450,85.2461
168.7450,85.2461
168.7450,85.2461
168.7450,85.2461
168.8034,85.2345
168.8035,85.2345
170.5429,85.2345
170.5429,85.2345
170.5430,85.2345
170.6014,85.2461
170.6014,85.2461
170.6677,85.2904
170.6678,85.2905
170.7121,85.3568
170.7121,85.3568
170.7237,85.4152
170.7237,85.4153
170.7237,87.1547
171.1627,87.1547
171.1627,85.4153
171.1643,85.4073
171.1655,85.4012
171.1743,85.3568
171.2186,85.2904
171.2187,85.2904
171.2850,85.2461
171.2850,85.2461
171.2850,85.2461
171.2850,85.2461
171.3434,85.2345
171.3435,85.2345
173.0829,85.2345
173.0829,85.2345
173.0830,85.2345
173.1414,85.2461
173.1414,85.2461
173.2077,85.2904
173.2078,85.2905
173.2521,85.3568
173.2521,85.3568
173.2637,85.4152
173.2637,85.4153
173.2637,87.1547
174.1571,87.1547
174.0068,87.0314
173.8755,86.8714
173.7780,86.6890
173.7179,86.4909
173.7179,86.4909
173.6976,86.2850
173.6976,86.2850
173.7179,86.0791
173.7179,86.0791
173.7411,86.0027
173.7780,85.8810
173.8755,85.6985
174.0068,85.5386
174.1571,85.4153
174.1667,85.4073
174.3492,85.3098
174.5473,85.2497
174.5473,85.2497
174.7532,85.2294
174.7532,85.2294
174.9591,85.2497
174.9591,85.2497
175.1572,85.3098
175.3397,85.4073
175.4996,85.5386
175.4996,85.5386
175.6309,85.6985
175.7284,85.8810
175.7885,86.0791
175.7885,86.0791
175.8088,86.2850
175.8088,86.2850
178.0082,86.2850
177.9108,86.1877
177.7813,86.0027
177.6859,85.7981
177.6274,85.5799
177.6238,85.5386
177.6078,85.3550
177.6078,85.3550
177.6274,85.1301
177.6274,85.1301
177.6274,85.1301
177.6859,84.9119
177.7813,84.7073
177.9108,84.5223
178.0705,84.3626
178.0705,84.3626
178.0705,84.3626
178.1731,84.2908
178.2555,84.2331
178.4601,84.1377
178.6783,84.0793
178.6783,84.0792
178.6783,84.0792
178.8468,84.0645
178.8468,84.0645
178.9596,84.0645
178.9596,84.0645
179.1281,84.0792
179.1281,84.0793
179.3463,84.1377
179.4417,84.1822
179.5509,84.2331
179.7359,84.3626
179.8956,84.5223
180.0251,84.7073
180.1205,84.9119
180.1790,85.1301
180.1986,85.3550
180.1986,85.3550
197.9417,85.3550
197.9417,55.8800
196.0677,55.8800
196.0476,56.2389
196.0476,56.2389
195.9874,56.5933
195.9874,56.5933
195.8879,56.9387
195.7503,57.2708
195.5764,57.5854
195.5764,57.5855
195.3684,57.8786
195.1289,58.1467
194.8608,58.3862
194.5677,58.5942
194.5676,58.5942
194.2530,58.7681
194.2530,58.7681
193.9209,58.9057
193.5755,59.0052
193.5755,59.0052
193.5755,59.0052
193.2211,59.0654
193.2211,59.0654
193.2211,59.0654
192.8622,59.0855
192.8622,59.0855
192.8622,59.0855
192.5033,59.0654
192.5033,59.0654
192.5033,59.0654
192.1489,59.0052
191.8035,58.9057
191.4714,58.7681
191.1567,58.5942
190.8636,58.3862
190.5955,58.1467
190.3560,57.8786
190.1480,57.5855
189.9741,57.2708
189.8365,56.9387
189.7370,56.5933
189.6768,56.2389
189.6567,55.8800
152.8877,55.8800
152.8676,56.2389
152.8676,56.2389
152.8074,56.5933
152.8074,56.5933
152.7079,56.9387
152.5703,57.2708
152.3964,57.5854
152.3964,57.5855
152.1884,57.8786
151.9489,58.1467
151.6808,58.3862
151.3877,58.5942
151.3876,58.5942
151.0730,58.7681
151.0730,58.7681
150.7409,58.9057
150.3955,59.0052
150.3955,59.0052
150.3955,59.0052
150.0411,59.0654
150.0411,59.0654
150.0411,59.0654
149.6822,59.0855
149.6822,59.0855
149.6822,59.0855
149.3233,59.0654
149.3233,59.0654
149.3233,59.0654
148.9689,59.0052
148.6235,58.9057
148.2914,58.7681
147.9767,58.5942
147.6836,58.3862
147.4155,58.1467
147.1760,57.8786
146.9680,57.5855
146.7941,57.2708
146.6565,56.9387
146.5570,56.5933
146.4968,56.2389
146.4767,55.8800
146.4968,55.5211
146.5570,55.1667
146.6565,54.8213
146.7941,54.4892
146.7941,54.4892
146.9680,54.1745
147.1760,53.8814
147.1760,53.8814
147.1760,53.8814
147.4155,53.6133
147.6836,53.3738
147.6836,53.3738
147.6836,53.3738
147.9768,53.1658
148.2914,52.9919
148.2914,52.9919
148.6235,52.8543
148.9689,52.7548
148.9689,52.7548
149.3233,52.6946
149.3233,52.6946
149.6822,52.6745
149.6822,52.6745
150.0411,52.6946
150.0411,52.6946
150.3955,52.7548
150.3955,52.7548
150.7409,52.8543
151.0730,52.9919
151.3876,53.1658
151.6808,53.3738
151.9489,53.6133
151.9489,53.6133
152.1884,53.8814
152.3964,54.1745
152.5703,54.4892
152.7079,54.8213
152.8074,55.1667
152.8074,55.1667
152.8676,55.5211
152.8676,55.5211
152.8877,55.8800
152.8877,55.8800
189.6567,55.8800
189.6567,55.8800
189.6768,55.5211
189.7370,55.1667
189.8365,54.8213
189.9741,54.4892
189.9741,54.4892
190.1480,54.1745
190.3560,53.8814
190.3560,53.8814
190.3560,53.8814
190.5955,53.6133
190.8636,53.3738
190.8636,53.3738
190.8636,53.3738
191.1568,53.1658
191.4714,52.9919
191.4714,52.9919
191.8035,52.8543
192.1489,52.7548
192.1489,52.7548
192.5033,52.6946
192.5033,52.6946
192.8622,52.6745
192.8622,52.6745
193.2211,52.6946
193.2211,52.6946
193.5755,52.7548
193.5755,52.7548
193.9209,52.8543
194.2530,52.9919
194.5676,53.1658
194.8608,53.3738
195.1289,53.6133
195.1289,53.6133
195.3684,53.8814
195.5764,54.1745
195.7503,54.4892
195.8879,54.8213
195.9874,55.1667
195.9874,55.1667
196.0476,55.5211
196.0476,55.5211
196.0677,55.8800
196.0677,55.8800
197.9417,55.8800
197.9417,50.8995
197.9228,50.8413
197.8733,50.8053
197.8427,50.8005
144.7017,50.8005
Z" /> 
</g>
</g>
</g>
<g style="fill:#FFFFFF; fill-opacity:1.0000; 
stroke:#FFFFFF; stroke-width:0.0000; stroke-opacity:1; 
stroke-linecap:round; stroke-linejoin:round;">
<circle cx="192.8622" cy="96.5200" r="1.6000" /> 
</g>
<g style="fill:#FFFFFF; fill-opacity:1.0000; 
stroke:#FFFFFF; stroke-width:0.0212; stroke-opacity:1; 
stroke-linecap:round; stroke-linejoin:round;">
</g>
<g style="fill:#FFFFFF; fill-opacity:1.0000; 
stroke:#FFFFFF; stroke-width:0.0000; stroke-opacity:1; 
stroke-linecap:round; stroke-linejoin:round;">
<circle cx="178.9032" cy="85.3550" r="1.0900" /> 
</g>
<g style="fill:#FFFFFF; fill-opacity:1.0000; 
stroke:#FFFFFF; stroke-width:0.0212; stroke-opacity:1; 
stroke-linecap:round; stroke-linejoin:round;">
</g>
<g style="fill:#FFFFFF; fill-opacity:1.0000; 
stroke:#FFFFFF; stroke-width:0.0000; stroke-opacity:1; 
stroke-linecap:round; stroke-linejoin:round;">
<circle cx="160.4432" cy="85.3550" r="1.0900" /> 
</g>
<g style="fill:#FFFFFF; fill-opacity:1.0000; 
stroke:#FFFFFF; stroke-width:0.0212; stroke-opacity:1; 
stroke-linecap:round; stroke-linejoin:round;">
</g>
<g style="fill:#FFFFFF; fill-opacity:1.0000; 
stroke:#FFFFFF; stroke-width:0.0000; stroke-opacity:1; 
stroke-linecap:round; stroke-linejoin:round;">
<circle cx="174.7532" cy="86.2850" r="0.5000" /> 
</g>
<g style="fill:#FFFFFF; fill-opacity:1.0000; 
stroke:#FFFFFF; stroke-width:0.0212; stroke-opacity:1; 
stroke-linecap:round; stroke-linejoin:round;">
</g>
<g style="fill:#FFFFFF; fill-opacity:1.0000; 
stroke:#FFFFFF; stroke-width:0.0000; stroke-opacity:1; 
stroke-linecap:round; stroke-linejoin:round;">
<circle cx="172.2132" cy="86.2850" r="0.5000" /> 
</g>
<g style="fill:#FFFFFF; fill-opacity:1.0000; 
stroke:#FFFFFF; stroke-width:0.0212; stroke-opacity:1; 
stroke-linecap:round; stroke-linejoin:round;">
</g>
<g style="fill:#FFFFFF; fill-opacity:1.0000; 
stroke:#FFFFFF; stroke-width:0.0000; stroke-opacity:1; 
stroke-linecap:round; stroke-linejoin:round;">
<circle cx="169.6732" cy="86.2850" r="0.5000" /> 
</g>
<g style="fill:#FFFFFF; fill-opacity:1.0000; 
stroke:#FFFFFF; stroke-width:0.0212; stroke-opacity:1; 
stroke-linecap:round; stroke-linejoin:round;">
</g>
<g style="fill:#FFFFFF; fill-opacity:1.0000; 
stroke:#FFFFFF; stroke-width:0.0000; stroke-opacity:1; 
stroke-linecap:round; stroke-linejoin:round;">
<circle cx="167.1332" cy="86.2850" r="0.5000" /> 
</g>
<g style="fill:#FFFFFF; fill-opacity:1.0000; 
stroke:#FFFFFF; stroke-width:0.0212; stroke-opacity:1; 
stroke-linecap:round; stroke-linejoin:round;">
</g>
<g style="fill:#FFFFFF; fill-opacity:1.0000; 
stroke:#FFFFFF; stroke-width:0.0000; stroke-opacity:1; 
stroke-linecap:round; stroke-linejoin:round;">
<circle cx="164.5932" cy="86.2850" r="0.5000" /> 
</g>
<g style="fill:#FFFFFF; fill-opacity:1.0000; 
stroke:#FFFFFF; stroke-width:0.0212; stroke-opacity:1; 
stroke-linecap:round; stroke-linejoin:round;">
</g>
<g style="fill:#FFFFFF; fill-opacity:1.0000; 
stroke:#FFFFFF; stroke-width:0.0000; stroke-opacity:1; 
stroke-linecap:round; stroke-linejoin:round;">
<circle cx="149.6822" cy="96.5200" r="1.6000" /> 
</g>
<g style="fill:#FFFFFF; fill-opacity:1.0000; 
stroke:#FFFFFF; stroke-width:0.0212; stroke-opacity:1; 
stroke-linecap:round; stroke-linejoin:round;">
</g>
<g style="fill:#FFFFFF; fill-opacity:1.0000; 
stroke:#FFFFFF; stroke-width:0.0000; stroke-opacity:1; 
stroke-linecap:round; stroke-linejoin:round;">
<circle cx="192.8622" cy="55.8800" r="1.6000" /> 
</g>
<g style="fill:#FFFFFF; fill-opacity:1.0000; 
stroke:#FFFFFF; stroke-width:0.0212; stroke-opacity:1; 
stroke-linecap:round; stroke-linejoin:round;">
</g>
<g style="fill:#FFFFFF; fill-opacity:1.0000; 
stroke:#FFFFFF; stroke-width:0.0000; stroke-opacity:1; 
stroke-linecap:round; stroke-linejoin:round;">
<circle cx="149.6822" cy="55.8800" r="1.6000" /> 
</g>
<g style="fill:#FFFFFF; fill-opacity:1.0000; 
stroke:#FFFFFF; stroke-width:0.0212; stroke-opacity:1; 
stroke-linecap:round; stroke-linejoin:round;">
</g>
<g style="fill:#000000; fill-opacity:1.0000; 
stroke:#000000; stroke-width:0.0212; stroke-opacity:1; 
stroke-linecap:round; stroke-linejoin:round;">
</g> 
</svg>
