<?xml version="1.0" standalone="no"?>
 <!DOCTYPE svg PUBLIC "-//W3C//DTD SVG 1.1//EN" 
 "http://www.w3.org/Graphics/SVG/1.1/DTD/svg11.dtd"> 
<svg
  xmlns:svg="http://www.w3.org/2000/svg"
  xmlns="http://www.w3.org/2000/svg"
  xmlns:xlink="http://www.w3.org/1999/xlink"
  version="1.1"
  width="297.0022mm" height="210.0072mm" viewBox="0.0000 0.0000 297.0022 210.0072">
<title>SVG Image created as template_project_kicad-F_Silkscreen.svg date 2023/11/26 01:35:28 </title>
  <desc>Image generated by PCBNEW </desc>
<g style="fill:#000000; fill-opacity:1.0000;stroke:#000000; stroke-opacity:1.0000;
stroke-linecap:round; stroke-linejoin:round;"
 transform="translate(0 0) scale(1 1)">
</g>
<g style="fill:#000000; fill-opacity:0.0; 
stroke:#000000; stroke-width:0.0000; stroke-opacity:1; 
stroke-linecap:round; stroke-linejoin:round;">
</g>
<g style="fill:#000000; fill-opacity:0.0; 
stroke:#000000; stroke-width:0.1500; stroke-opacity:1; 
stroke-linecap:round; stroke-linejoin:round;">
<text x="104.1400" y="92.8200"
textLength="4.5357" font-size="1.3333" lengthAdjust="spacingAndGlyphs"
text-anchor="middle" opacity="0">REF**</text>
<g class="stroked-text"><desc>REF**</desc>
<path d="M102.8067 92.7748
L102.4733 92.2986
" />
<path d="M102.2352 92.7748
L102.2352 91.7748
" />
<path d="M102.2352 91.7748
L102.6162 91.7748
" />
<path d="M102.6162 91.7748
L102.7114 91.8224
" />
<path d="M102.7114 91.8224
L102.7590 91.8701
" />
<path d="M102.7590 91.8701
L102.8067 91.9653
" />
<path d="M102.8067 91.9653
L102.8067 92.1082
" />
<path d="M102.8067 92.1082
L102.7590 92.2034
" />
<path d="M102.7590 92.2034
L102.7114 92.2510
" />
<path d="M102.7114 92.2510
L102.6162 92.2986
" />
<path d="M102.6162 92.2986
L102.2352 92.2986
" />
<path d="M103.2352 92.2510
L103.5686 92.2510
" />
<path d="M103.7114 92.7748
L103.2352 92.7748
" />
<path d="M103.2352 92.7748
L103.2352 91.7748
" />
<path d="M103.2352 91.7748
L103.7114 91.7748
" />
<path d="M104.4733 92.2510
L104.1400 92.2510
" />
<path d="M104.1400 92.7748
L104.1400 91.7748
" />
<path d="M104.1400 91.7748
L104.6162 91.7748
" />
<path d="M105.1400 91.7748
L105.1400 92.0129
" />
<path d="M104.9019 91.9177
L105.1400 92.0129
" />
<path d="M105.1400 92.0129
L105.3781 91.9177
" />
<path d="M104.9971 92.2034
L105.1400 92.0129
" />
<path d="M105.1400 92.0129
L105.2829 92.2034
" />
<path d="M105.9019 91.7748
L105.9019 92.0129
" />
<path d="M105.6638 91.9177
L105.9019 92.0129
" />
<path d="M105.9019 92.0129
L106.1400 91.9177
" />
<path d="M105.7590 92.2034
L105.9019 92.0129
" />
<path d="M105.9019 92.0129
L106.0448 92.2034
" />
</g><text x="127.9990" y="72.0550"
textLength="3.1548" font-size="1.3333" lengthAdjust="spacingAndGlyphs"
text-anchor="middle" opacity="0">PS1</text>
<g class="stroked-text"><desc>PS1</desc>
<path d="M126.7847 72.0098
L126.7847 71.0098
" />
<path d="M126.7847 71.0098
L127.1657 71.0098
" />
<path d="M127.1657 71.0098
L127.2609 71.0574
" />
<path d="M127.2609 71.0574
L127.3085 71.1051
" />
<path d="M127.3085 71.1051
L127.3561 71.2003
" />
<path d="M127.3561 71.2003
L127.3561 71.3432
" />
<path d="M127.3561 71.3432
L127.3085 71.4384
" />
<path d="M127.3085 71.4384
L127.2609 71.4860
" />
<path d="M127.2609 71.4860
L127.1657 71.5336
" />
<path d="M127.1657 71.5336
L126.7847 71.5336
" />
<path d="M127.7371 71.9622
L127.8800 72.0098
" />
<path d="M127.8800 72.0098
L128.1180 72.0098
" />
<path d="M128.1180 72.0098
L128.2133 71.9622
" />
<path d="M128.2133 71.9622
L128.2609 71.9146
" />
<path d="M128.2609 71.9146
L128.3085 71.8193
" />
<path d="M128.3085 71.8193
L128.3085 71.7241
" />
<path d="M128.3085 71.7241
L128.2609 71.6289
" />
<path d="M128.2609 71.6289
L128.2133 71.5812
" />
<path d="M128.2133 71.5812
L128.1180 71.5336
" />
<path d="M128.1180 71.5336
L127.9276 71.4860
" />
<path d="M127.9276 71.4860
L127.8323 71.4384
" />
<path d="M127.8323 71.4384
L127.7847 71.3908
" />
<path d="M127.7847 71.3908
L127.7371 71.2955
" />
<path d="M127.7371 71.2955
L127.7371 71.2003
" />
<path d="M127.7371 71.2003
L127.7847 71.1051
" />
<path d="M127.7847 71.1051
L127.8323 71.0574
" />
<path d="M127.8323 71.0574
L127.9276 71.0098
" />
<path d="M127.9276 71.0098
L128.1657 71.0098
" />
<path d="M128.1657 71.0098
L128.3085 71.0574
" />
<path d="M129.2609 72.0098
L128.6895 72.0098
" />
<path d="M128.9752 72.0098
L128.9752 71.0098
" />
<path d="M128.9752 71.0098
L128.8800 71.1527
" />
<path d="M128.8800 71.1527
L128.7847 71.2479
" />
<path d="M128.7847 71.2479
L128.6895 71.2955
" />
</g><text x="147.3200" y="92.8200"
textLength="4.5357" font-size="1.3333" lengthAdjust="spacingAndGlyphs"
text-anchor="middle" opacity="0">REF**</text>
<g class="stroked-text"><desc>REF**</desc>
<path d="M145.9867 92.7748
L145.6533 92.2986
" />
<path d="M145.4152 92.7748
L145.4152 91.7748
" />
<path d="M145.4152 91.7748
L145.7962 91.7748
" />
<path d="M145.7962 91.7748
L145.8914 91.8224
" />
<path d="M145.8914 91.8224
L145.9390 91.8701
" />
<path d="M145.9390 91.8701
L145.9867 91.9653
" />
<path d="M145.9867 91.9653
L145.9867 92.1082
" />
<path d="M145.9867 92.1082
L145.9390 92.2034
" />
<path d="M145.9390 92.2034
L145.8914 92.2510
" />
<path d="M145.8914 92.2510
L145.7962 92.2986
" />
<path d="M145.7962 92.2986
L145.4152 92.2986
" />
<path d="M146.4152 92.2510
L146.7486 92.2510
" />
<path d="M146.8914 92.7748
L146.4152 92.7748
" />
<path d="M146.4152 92.7748
L146.4152 91.7748
" />
<path d="M146.4152 91.7748
L146.8914 91.7748
" />
<path d="M147.6533 92.2510
L147.3200 92.2510
" />
<path d="M147.3200 92.7748
L147.3200 91.7748
" />
<path d="M147.3200 91.7748
L147.7962 91.7748
" />
<path d="M148.3200 91.7748
L148.3200 92.0129
" />
<path d="M148.0819 91.9177
L148.3200 92.0129
" />
<path d="M148.3200 92.0129
L148.5581 91.9177
" />
<path d="M148.1771 92.2034
L148.3200 92.0129
" />
<path d="M148.3200 92.0129
L148.4629 92.2034
" />
<path d="M149.0819 91.7748
L149.0819 92.0129
" />
<path d="M148.8438 91.9177
L149.0819 92.0129
" />
<path d="M149.0819 92.0129
L149.3200 91.9177
" />
<path d="M148.9390 92.2034
L149.0819 92.0129
" />
<path d="M149.0819 92.0129
L149.2248 92.2034
" />
</g><text x="104.1400" y="52.1800"
textLength="4.5357" font-size="1.3333" lengthAdjust="spacingAndGlyphs"
text-anchor="middle" opacity="0">REF**</text>
<g class="stroked-text"><desc>REF**</desc>
<path d="M102.8067 52.1348
L102.4733 51.6586
" />
<path d="M102.2352 52.1348
L102.2352 51.1348
" />
<path d="M102.2352 51.1348
L102.6162 51.1348
" />
<path d="M102.6162 51.1348
L102.7114 51.1824
" />
<path d="M102.7114 51.1824
L102.7590 51.2301
" />
<path d="M102.7590 51.2301
L102.8067 51.3253
" />
<path d="M102.8067 51.3253
L102.8067 51.4682
" />
<path d="M102.8067 51.4682
L102.7590 51.5634
" />
<path d="M102.7590 51.5634
L102.7114 51.6110
" />
<path d="M102.7114 51.6110
L102.6162 51.6586
" />
<path d="M102.6162 51.6586
L102.2352 51.6586
" />
<path d="M103.2352 51.6110
L103.5686 51.6110
" />
<path d="M103.7114 52.1348
L103.2352 52.1348
" />
<path d="M103.2352 52.1348
L103.2352 51.1348
" />
<path d="M103.2352 51.1348
L103.7114 51.1348
" />
<path d="M104.4733 51.6110
L104.1400 51.6110
" />
<path d="M104.1400 52.1348
L104.1400 51.1348
" />
<path d="M104.1400 51.1348
L104.6162 51.1348
" />
<path d="M105.1400 51.1348
L105.1400 51.3729
" />
<path d="M104.9019 51.2777
L105.1400 51.3729
" />
<path d="M105.1400 51.3729
L105.3781 51.2777
" />
<path d="M104.9971 51.5634
L105.1400 51.3729
" />
<path d="M105.1400 51.3729
L105.2829 51.5634
" />
<path d="M105.9019 51.1348
L105.9019 51.3729
" />
<path d="M105.6638 51.2777
L105.9019 51.3729
" />
<path d="M105.9019 51.3729
L106.1400 51.2777
" />
<path d="M105.7590 51.5634
L105.9019 51.3729
" />
<path d="M105.9019 51.3729
L106.0448 51.5634
" />
</g><text x="147.3200" y="52.1800"
textLength="4.5357" font-size="1.3333" lengthAdjust="spacingAndGlyphs"
text-anchor="middle" opacity="0">REF**</text>
<g class="stroked-text"><desc>REF**</desc>
<path d="M145.9867 52.1348
L145.6533 51.6586
" />
<path d="M145.4152 52.1348
L145.4152 51.1348
" />
<path d="M145.4152 51.1348
L145.7962 51.1348
" />
<path d="M145.7962 51.1348
L145.8914 51.1824
" />
<path d="M145.8914 51.1824
L145.9390 51.2301
" />
<path d="M145.9390 51.2301
L145.9867 51.3253
" />
<path d="M145.9867 51.3253
L145.9867 51.4682
" />
<path d="M145.9867 51.4682
L145.9390 51.5634
" />
<path d="M145.9390 51.5634
L145.8914 51.6110
" />
<path d="M145.8914 51.6110
L145.7962 51.6586
" />
<path d="M145.7962 51.6586
L145.4152 51.6586
" />
<path d="M146.4152 51.6110
L146.7486 51.6110
" />
<path d="M146.8914 52.1348
L146.4152 52.1348
" />
<path d="M146.4152 52.1348
L146.4152 51.1348
" />
<path d="M146.4152 51.1348
L146.8914 51.1348
" />
<path d="M147.6533 51.6110
L147.3200 51.6110
" />
<path d="M147.3200 52.1348
L147.3200 51.1348
" />
<path d="M147.3200 51.1348
L147.7962 51.1348
" />
<path d="M148.3200 51.1348
L148.3200 51.3729
" />
<path d="M148.0819 51.2777
L148.3200 51.3729
" />
<path d="M148.3200 51.3729
L148.5581 51.2777
" />
<path d="M148.1771 51.5634
L148.3200 51.3729
" />
<path d="M148.3200 51.3729
L148.4629 51.5634
" />
<path d="M149.0819 51.1348
L149.0819 51.3729
" />
<path d="M148.8438 51.2777
L149.0819 51.3729
" />
<path d="M149.0819 51.3729
L149.3200 51.2777
" />
<path d="M148.9390 51.5634
L149.0819 51.3729
" />
<path d="M149.0819 51.3729
L149.2248 51.5634
" />
</g></g>
<g style="fill:#000000; fill-opacity:0.0; 
stroke:#000000; stroke-width:0.1200; stroke-opacity:1; 
stroke-linecap:round; stroke-linejoin:round;">
<path d="M115.8990 64.6550
L115.8990 87.5550
" />
<path d="M115.8990 87.5550
L138.7990 87.5550
" />
<path d="M138.7990 64.6550
L115.8990 64.6550
" />
<path d="M138.7990 87.5550
L138.7990 64.6550
" />
<g >
</g>
<g >
</g>
<g >
</g>
<g >
</g>
<g >
</g>
<g >
</g>
<g >
</g>
<g >
</g>
</g> 
</svg>
